<svg xmlns="http://www.w3.org/2000/svg" viewBox="0 0 213 52.11"><defs><style>.a{fill:#fff;}</style></defs><title>alacrity-logo</title><path class="a" d="M52.73,19.36s-.44,9-8.45,9H35.61l-3.48,0a13.07,13.07,0,0,0,2.51-5.48,12.91,12.91,0,0,0,.17-3.48H52.73Zm-7.94-7.78a5.93,5.93,0,1,1-5.93-5.93,5.93,5.93,0,0,1,5.93,5.93M33.3,19.36a11.32,11.32,0,0,1-.14,3.2,11.86,11.86,0,0,1-3,5.75c-.15.16-.29.32-.44.47-.89.89-1.34,1.38-1.34,1.38a6.36,6.36,0,0,0-.53.87,3.3,3.3,0,0,0-.42,2,3,3,0,0,0,1,1.55l2.24,2.24h0l0,0c5.87,5.91-.43,12.31-.43,12.31L22,41,22,40.93a12.16,12.16,0,0,1-3.23-5.55c-.05-.2-.1-.41-.14-.61A11.61,11.61,0,0,1,19,29.07a15.18,15.18,0,0,1,1.11-2.57,14.12,14.12,0,0,1,1.82-2.6s.62-.57,1.48-1.49a3.08,3.08,0,0,0,.94-1.48,2.43,2.43,0,0,0,0-1.17,6,6,0,0,0-1-1.93l-2.75-2.75c-5.47-5.47.7-12,.7-12l8.58,8.58.07.08a14.28,14.28,0,0,1,2.07,3.08,13.05,13.05,0,0,1,1.36,4.58m-15.11,7a16.61,16.61,0,0,0-.91,2.24,13,13,0,0,0-.41,6.44c0,.11.05.22.07.33H2.59s.27-9,8.55-9Zm37.37-6.91a2.83,2.83,0,0,0-2.83-3H46.41A8.76,8.76,0,1,0,30.8,8.6L23.22,1a2.84,2.84,0,0,0-2-.83h0a2.84,2.84,0,0,0-2,.89c-2.79,3-6.5,10.12-.64,16l2.6,2.6a4.44,4.44,0,0,1,.35.62l-.15.16c-.78.83-1.35,1.35-1.35,1.36a3.65,3.65,0,0,0-.26.27l0,.05a16.14,16.14,0,0,0-1.08,1.39H11.39C2.66,23.51.12,31.2,0,35.27a2.84,2.84,0,0,0,2.84,2.92H16.72A15.37,15.37,0,0,0,20,42.91L20,43l8.21,8.21a2.84,2.84,0,0,0,2,.83h0a2.83,2.83,0,0,0,2-.85c3-3.07,5.65-9.23,1.76-14.7a2.8,2.8,0,0,0-.53-.78l-.83-.83h0l-2.21-2.22-.12-.13.09-.21a3.22,3.22,0,0,1,.2-.34l.86-.89a2.77,2.77,0,0,0,.65.09l3.51,0h8.67c8.47,0,11.08-7.66,11.28-11.71"/><path class="a" d="M77.42,20.74c-4.64-.09-9.06.75-9.06,4,0,2.11,1.65,3.08,3.73,3.08a5.33,5.33,0,0,0,5.11-2.94,3.28,3.28,0,0,0,.21-1.19Zm6.39,5.32a28.38,28.38,0,0,0,.37,5.14H78.27l-.43-2.37h-.16A10.58,10.58,0,0,1,70,31.68c-5.22,0-8.15-3.12-8.15-6.37,0-5.4,5.81-8.13,15.4-8.08v-.35c0-1.41-.69-3.74-5.27-3.74a16,16,0,0,0-7,1.58L63.73,11.2A21.86,21.86,0,0,1,73.1,9.31c8.31,0,10.71,4.35,10.71,9Z"/><rect class="a" x="88.18" width="6.61" height="31.2"/><path class="a" d="M113.06,20.74c-4.64-.09-9.06.75-9.06,4,0,2.11,1.65,3.08,3.73,3.08a5.33,5.33,0,0,0,5.11-2.94,3.23,3.23,0,0,0,.21-1.19Zm6.39,5.32a28.38,28.38,0,0,0,.37,5.14h-5.91l-.43-2.37h-.16a10.58,10.58,0,0,1-7.67,2.86c-5.22,0-8.15-3.12-8.15-6.37,0-5.4,5.81-8.13,15.4-8.08v-.35c0-1.41-.69-3.74-5.27-3.74a16,16,0,0,0-7,1.58L99.37,11.2a21.87,21.87,0,0,1,9.38-1.89c8.31,0,10.71,4.35,10.71,9Z"/><path class="a" d="M142.89,30.54a22.29,22.29,0,0,1-7.35,1.14c-8.1,0-13.37-4.31-13.37-10.94,0-6.42,5.33-11.42,14.44-11.42a19.42,19.42,0,0,1,6.34,1l-1.17,4a13.64,13.64,0,0,0-5-.84c-5,0-8,3-7.94,6.94,0,4.39,3.46,6.9,7.94,6.9a15.2,15.2,0,0,0,5.17-.83Z"/><path class="a" d="M145.18,16.7c0-2.9-.05-5-.21-6.9h5.7l.21,4.09h.21a7.68,7.68,0,0,1,7.09-4.57,8.26,8.26,0,0,1,1.54.13v5.1a10.93,10.93,0,0,0-1.92-.18c-3.14,0-5.27,1.67-5.86,4.09a7.74,7.74,0,0,0-.21,1.67V31.2h-6.55Z"/><path class="a" d="M161.59,9.8h6.61V31.2h-6.61Zm7-6c0,1.63-1.44,2.9-3.73,2.9s-3.62-1.27-3.62-2.9S162.71.88,164.89.88s3.62,1.27,3.68,2.94"/><path class="a" d="M180.18,4.31V9.8h6.23v4h-6.23v9.45c0,2.59.85,4,3.36,4A9.67,9.67,0,0,0,186.1,27l.11,4.13a16.91,16.91,0,0,1-4.74.57,8.53,8.53,0,0,1-5.65-1.8c-1.39-1.23-2-3.16-2-6V13.84h-3.73v-4h3.73v-4Z"/><path class="a" d="M194.25,9.8l4.69,11.47c.53,1.32,1.07,2.94,1.44,4.17h.16c.43-1.23.91-2.81,1.39-4.22L206,9.8h7l-6.5,14.59c-3.57,8-6,11.56-9.06,13.75a14.55,14.55,0,0,1-6.87,2.77l-1.49-4.57a12.44,12.44,0,0,0,3.84-1.49,10.26,10.26,0,0,0,3.57-3.38,1.92,1.92,0,0,0,.43-1,2,2,0,0,0-.37-1.06L187.06,9.8Z"/><path class="a" d="M116.45,49.19a1.19,1.19,0,0,1-.08.43,2,2,0,0,1-1.87,1.07c-.76,0-1.36-.35-1.36-1.12,0-1.19,1.62-1.49,3.31-1.46Zm2.34-2c0-1.7-.88-3.28-3.91-3.28a8,8,0,0,0-3.43.69l.47,1.28a5.87,5.87,0,0,1,2.55-.58c1.67,0,1.93.85,1.93,1.36v.13c-3.51,0-5.63,1-5.63,2.95,0,1.19,1.07,2.32,3,2.32a3.87,3.87,0,0,0,2.81-1h.06l.16.86h2.16a10.22,10.22,0,0,1-.14-1.87Zm-11.43,1.31a1.83,1.83,0,0,1-.08.58,2.06,2.06,0,0,1-2.06,1.39,2.27,2.27,0,0,1-2.38-2.47,2.35,2.35,0,0,1,2.4-2.58,2,2,0,0,1,2.06,1.39,2.3,2.3,0,0,1,.06.51Zm0-8V45h0a3.28,3.28,0,0,0-2.67-1,4,4,0,0,0-4.25,4.16,3.88,3.88,0,0,0,4.05,4,3.62,3.62,0,0,0,3.1-1.41h0l.1,1.23h2.14c0-.53-.08-1.39-.08-2.19V40.56ZM97,49.19a1.19,1.19,0,0,1-.08.43,2,2,0,0,1-1.87,1.07c-.76,0-1.36-.35-1.36-1.12,0-1.19,1.62-1.49,3.31-1.46Zm2.34-2c0-1.7-.88-3.28-3.91-3.28a8,8,0,0,0-3.43.69l.47,1.28A5.87,5.87,0,0,1,95,45.35c1.67,0,1.93.85,1.93,1.36v.13c-3.51,0-5.63,1-5.63,2.95,0,1.19,1.07,2.32,3,2.32a3.87,3.87,0,0,0,2.8-1h.06l.16.86h2.16a10.34,10.34,0,0,1-.14-1.87ZM81.76,51.93h2.42V47.35a1.68,1.68,0,0,1,.1-.64,2,2,0,0,1,1.87-1.15c1.31,0,1.81.85,1.81,2v4.4h2.4V47.31A3.11,3.11,0,0,0,87,44a3.62,3.62,0,0,0-3,1.35H83.9l-.12-1.17h-2.1c.06.67.08,1.43.08,2.32Zm-4-2.74a1.19,1.19,0,0,1-.08.43,2,2,0,0,1-1.87,1.07c-.76,0-1.36-.35-1.36-1.12,0-1.19,1.62-1.49,3.31-1.46Zm2.34-2c0-1.7-.88-3.28-3.91-3.28a8,8,0,0,0-3.43.69l.47,1.28a5.87,5.87,0,0,1,2.55-.58c1.67,0,1.93.85,1.93,1.36v.13c-3.51,0-5.63,1-5.63,2.95,0,1.19,1.07,2.32,3,2.32a3.87,3.87,0,0,0,2.81-1h.06l.16.86h2.16a10.22,10.22,0,0,1-.14-1.87ZM71.5,50.06a8,8,0,0,1-2.61.4c-2.88,0-4.58-1.52-4.58-3.89,0-2.59,1.93-4,4.6-4a7.58,7.58,0,0,1,2.57.42L72,41.44a9,9,0,0,0-3.2-.48c-4,0-7,2.15-7,5.7,0,3.28,2.53,5.45,6.7,5.45a9.79,9.79,0,0,0,3.39-.5Z"/></svg>