<?xml version="1.0" encoding="UTF-8"?>
<svg width="225px" height="70px" viewBox="0 0 225 70" version="1.1" xmlns="http://www.w3.org/2000/svg" xmlns:xlink="http://www.w3.org/1999/xlink">
    <!-- Generator: Sketch 52.2 (67145) - http://www.bohemiancoding.com/sketch -->
    <title>stocksy</title>
    <desc>Created with Sketch.</desc>
    <g id="2018-10-08" stroke="none" stroke-width="1" fill="none" fill-rule="evenodd">
        <g id="Diversitechy---web-v2" transform="translate(-607.000000, -3637.000000)" fill="#333333">
            <g id="Group-17" transform="translate(132.000000, 3269.000000)">
                <g id="Group-9-Copy" transform="translate(0.000000, 291.000000)">
                    <g id="stocksy" transform="translate(474.000000, 77.000000)">
                        <path d="M159.909211,57.3015789 C159.459211,57.3015789 159.013947,57.3797368 158.575789,57.3442105 C158.128158,57.3086842 157.687632,57.2305263 157.251842,57.1594737 C156.811316,57.0884211 156.382632,56.9557895 155.956316,56.8468421 C155.526632,56.7378741 155.10223,56.6090517 154.684474,56.4607895 C154.260526,56.3115789 153.836579,56.1765789 153.438684,55.9871053 C153.033684,55.7976316 152.673684,55.53 152.299474,55.3002632 C151.533875,54.8377595 150.823499,54.2894827 150.182105,53.6660526 C149.866528,53.3438067 149.571475,53.0020831 149.298684,52.6428947 C149.014474,52.2781579 148.687632,51.9536842 148.460263,51.5723684 C148.223421,51.1744737 148.062368,50.7457895 147.887105,50.3407895 C147.697632,49.9121053 147.484474,49.5047368 147.363684,49.0831579 C147.094212,48.2109844 146.993729,47.2953836 147.067632,46.3855263 C147.093684,45.9852632 147.197895,45.6323684 147.292632,45.3244737 C147.527105,44.5381579 147.792368,44.3771053 148.152368,44.9905263 C148.339474,45.3055263 148.602368,45.6892105 148.896053,46.1415789 C149.121053,46.4921053 149.405263,46.8497368 149.717895,47.2310526 C149.990263,47.5673684 150.257895,47.9392105 150.610789,48.2684211 C150.928158,48.5668421 151.307105,48.8226316 151.700263,49.0973684 C152.055526,49.3507895 152.406053,49.6539474 152.83,49.8694737 C153.218421,50.0707895 153.654211,50.2176316 154.106579,50.3763158 C154.516316,50.5231579 154.956842,50.6439474 155.423421,50.7457895 C155.849737,50.8405263 156.295,50.9778947 156.773421,51.03 C157.128684,51.0678947 157.495789,51.0063158 157.846316,51.0063158 C158.32,51.0063158 158.77,50.9589474 159.201053,50.8926316 C159.67,50.8215789 160.136579,50.8073684 160.551053,50.67 C161.001053,50.5231579 161.417895,50.3147368 161.801579,50.1039474 C162.218421,49.8765789 162.559474,49.5639474 162.893421,49.2821053 C163.258158,48.9765789 163.606316,48.6781579 163.869211,48.3323684 C164.158158,47.9486842 164.421053,47.5602632 164.579737,47.16 C164.750263,46.7336842 164.847368,46.3097368 164.930263,45.9165789 C165.025,45.4713158 165.020263,45.0402632 165.015526,44.6328947 C165.015526,44.19 164.991842,43.7660526 164.892368,43.3563158 C164.803702,42.9334446 164.671962,42.5207655 164.499211,42.1247368 C164.313461,41.7366099 164.098914,41.362934 163.857368,41.0068421 C163.620526,40.6563158 163.324474,40.3436842 163.047368,40.005 C162.782105,39.6781579 162.535789,39.3205263 162.242105,38.9984211 C161.957895,38.6834211 161.607368,38.4252632 161.311316,38.1102632 C161.038947,37.8165789 160.773684,37.5157895 160.503684,37.2173684 C160.231316,36.9213158 159.975526,36.6086842 159.719737,36.3031579 C159.459211,35.9952632 159.203421,35.685 158.968947,35.3605263 C158.731276,35.0370655 158.509946,34.7019092 158.305789,34.3563158 C158.102105,34.0105263 157.893684,33.66 157.739737,33.2905263 C157.593564,32.9141765 157.477154,32.5269349 157.391579,32.1323684 C157.271748,31.6771394 157.194833,31.2116842 157.161842,30.7421053 C157.153059,30.2715376 157.189542,29.8012155 157.270789,29.3376316 C157.337105,28.8757895 157.431842,28.4139474 157.585789,27.9663158 C157.737368,27.5305263 157.910263,27.09 158.142368,26.6707895 C158.362632,26.2681579 158.696579,25.9271053 158.992632,25.5505263 C159.257895,25.2118421 159.480526,24.8305263 159.790789,24.525 C160.098684,24.2265789 160.446842,23.9636842 160.795,23.7007895 C161.136053,23.4402632 161.498421,23.2034211 161.872632,22.9831579 C162.242105,22.7652632 162.616316,22.5402632 163.009474,22.3626316 C163.402632,22.185 163.821842,22.0642105 164.233947,21.9292105 C164.641316,21.7942105 165.048684,21.6426316 165.475,21.5502632 C165.894211,21.4578947 166.320526,21.3607895 166.753947,21.3157895 C167.180263,21.2684211 167.618421,21.3086842 168.051842,21.3086842 C168.165526,21.3086842 168.281579,21.3489474 168.397632,21.3513158 C168.823947,21.3631579 169.236053,21.3110526 169.624474,21.3465789 C170.053158,21.3844737 170.453421,21.4934211 170.832368,21.555 C171.263421,21.6260526 171.663684,21.6923684 172.037895,21.7894737 C172.459474,21.8984211 172.866842,21.9623684 173.224474,22.0973684 C173.638947,22.2513158 174.010789,22.4336842 174.342368,22.6160526 C174.735526,22.8292105 175.041053,23.1086842 175.332368,23.3384211 C175.692368,23.6226316 176.033421,23.8594737 176.263158,24.1318421 C176.554474,24.48 176.774737,24.8778947 176.957105,25.2686842 C177.146579,25.6736842 177.288684,26.1 177.355,26.5334211 C177.403364,26.9732118 177.386605,27.4177309 177.305263,27.8526316 C177.243684,28.2647368 177.170263,28.6413158 176.990263,28.9373684 C176.782153,29.2577407 176.487276,29.5123694 176.14,29.6715789 C175.79619,29.8211432 175.422701,29.8900077 175.048158,29.8728947 C174.574474,29.8728947 174.053421,29.8136842 173.558421,29.6028947 C173.21498,29.4535463 172.904933,29.2369166 172.646579,28.9657895 C172.393815,28.6939342 172.171448,28.3953273 171.983421,28.0752632 C171.722895,27.6631579 171.462368,27.2321053 171.021842,26.8626316 C170.6125,26.5431874 170.145234,26.3059352 169.645789,26.1639474 C169.150999,26.0020381 168.63402,25.9181389 168.113421,25.9152632 C167.734474,25.9152632 167.372105,25.9578947 167.035789,26.0502632 C166.681345,26.1361101 166.343601,26.2801716 166.036316,26.4765789 C165.733158,26.6897368 165.496316,26.9786842 165.309211,27.2865789 C165.06301,27.7025825 164.945952,28.1823532 164.972895,28.665 C164.987105,29.1102632 165.136316,29.5602632 165.373158,30.0268421 C165.510526,30.2921053 165.733158,30.5715789 166.019737,30.9031579 C166.232895,31.1542105 166.450789,31.4573684 166.732632,31.7463158 C166.974211,31.995 167.201579,32.2910526 167.481053,32.5705263 C167.767632,32.8571053 168.111053,33.1271053 168.426053,33.4515789 C168.712632,33.7476316 169.027632,34.0436842 169.328421,34.3705263 C169.612632,34.6784211 169.856579,35.0384211 170.143158,35.3723684 C170.417895,35.6944737 170.671316,36.0402632 170.938947,36.3860526 C171.199474,36.7223684 171.476579,37.0539474 171.720526,37.4139474 C171.962105,37.7668421 172.217895,38.115 172.435789,38.4915789 C172.651316,38.8610526 172.828947,39.2542105 173.016053,39.6473684 C173.200789,40.0334211 173.423421,40.41 173.572632,40.8173684 C173.721842,41.22 173.835526,41.6392105 173.944474,42.0607895 C174.051053,42.4728947 174.100789,42.9039474 174.162368,43.3373684 C174.221579,43.7565789 174.226316,44.1852632 174.238158,44.6257895 C174.25,45.0473684 174.318684,45.4807895 174.280789,45.9189474 C174.245263,46.3405263 174.197895,46.7715789 174.112632,47.2073684 C174.032105,47.6194737 173.880526,48.0315789 173.750263,48.4555263 C173.623201,48.8562837 173.472947,49.2493152 173.300263,49.6326316 C173.134474,50.0210526 172.982895,50.4142105 172.774474,50.7742105 C172.122696,51.8537997 171.297731,52.8187936 170.332632,53.6305263 C170.017632,53.9052632 169.716842,54.2060526 169.378158,54.45 C169.037105,54.6939474 168.639211,54.8526316 168.279211,55.0634211 C167.916842,55.2765789 167.552105,55.4707895 167.175526,55.6531579 C166.796579,55.8331579 166.422368,56.0178947 166.033947,56.1694737 C165.640789,56.3210526 165.266579,56.5176316 164.866316,56.6407895 C164.463684,56.7639474 164.042105,56.8065789 163.634737,56.8989474 C163.225,56.9936842 162.824737,57.1405263 162.415,57.2021053 C161.998158,57.2660526 161.571842,57.2328947 161.159737,57.2660526 C160.743515,57.2941508 160.326356,57.3060019 159.909211,57.3015789 M51.9021053,60.3331579 C51.4213158,60.3331579 50.9405263,60.3757895 50.4810526,60.2786842 C50.0170947,60.169401 49.5667042,60.0089444 49.1381579,59.8002632 C48.7134493,59.5885613 48.3145099,59.3286945 47.9492105,59.0257895 C47.5761489,58.7344754 47.2383401,58.4006407 46.9426316,58.0310526 C46.6521927,57.686165 46.3967281,57.3132821 46.18,56.9178947 C45.9786842,56.5294737 45.8673684,56.0889474 45.7228947,55.6460526 C45.5824094,55.2188644 45.4700635,54.7829307 45.3865789,54.3410526 C45.3018683,53.8985001 45.2402062,53.4518455 45.2018421,53.0028947 C45.1663158,52.5694737 45.1686842,52.1194737 45.1686842,51.6528947 C45.1686842,51.2171053 45.1023684,50.7623684 45.1355263,50.2981579 C45.1663158,49.86 45.2610526,49.4171053 45.3202632,48.9576316 C45.3771053,48.5194737 45.3794737,48.06 45.4623684,47.6028947 C45.5381579,47.1694737 45.6281579,46.7218421 45.73,46.2694737 C45.8223684,45.8621053 45.9431579,45.4547368 46.0378947,45.0378947 C46.135,44.6305263 46.2676316,44.2255263 46.3694737,43.8086842 C46.4689474,43.4036842 46.5589474,42.9892105 46.6678947,42.5771053 C46.7721053,42.1697368 46.9142105,41.7718421 47.0231579,41.3597368 C47.1344737,40.9571053 47.1889474,40.5307895 47.305,40.1210526 C47.4163158,39.7160526 47.5086842,39.3015789 47.6247368,38.8894737 C47.7431579,38.4868421 47.9136842,38.0936842 48.0344737,37.6863158 C48.1552632,37.2813158 48.2381579,36.8621053 48.3613158,36.4547368 C48.4868421,36.0521053 48.6834211,35.6684211 48.8113158,35.2657895 C48.9368421,34.8631579 49.0315789,34.4463158 49.1618421,34.0436842 L49.555,32.8334211 C49.69,32.4307895 49.8865789,32.0518421 50.0215789,31.6492105 C50.1589474,31.2465789 50.2252632,30.8202632 50.365,30.4176316 C50.5071053,30.0173684 50.7936842,29.1031579 50.9002632,28.6910526 C51.13,27.7981579 51.2697368,27.8952632 50.4218421,27.945 C50.3744737,27.9473684 49.5289474,27.9592105 49.4815789,27.9568421 C49.0454027,27.9297152 48.612581,27.8631272 48.1884211,27.7578947 C47.7621053,27.6418421 47.3310526,27.5376316 46.9307895,27.3576316 C46.5281579,27.1776316 46.1515789,26.9384211 45.7821053,26.7039474 C45.4031579,26.4671053 45.0763158,26.1710526 44.7447368,25.8939474 C44.2912726,25.4770559 43.8759392,25.0205062 43.5036842,24.5297368 C43.0773684,23.9423684 43.1247368,23.9542105 43.5036842,23.5705263 C43.9821053,23.0897368 44.7305263,22.6468421 45.1710526,22.41 C45.5405263,22.2086842 45.9526316,22.0144737 46.3884211,21.8060526 C46.7768421,21.6213158 47.1936842,21.4507895 47.6342105,21.2589474 C48.0321053,21.0860526 48.4465789,20.9036842 48.8823684,20.7307895 C49.2897368,20.565 49.7113158,20.3992105 50.1494737,20.2334211 C50.5615789,20.0771053 50.9807895,19.8971053 51.4213158,19.7384211 C51.8381579,19.5915789 52.2739474,19.4731579 52.7168421,19.3239474 C53.1384211,19.1818421 54.3960526,18.7507895 54.8365789,18.6086842 C55.2401275,18.4859381 55.5703439,18.193757 55.7413158,17.8081579 C55.9307895,17.4055263 56.3097368,16.4060526 56.4968421,16.0176316 C56.6863158,15.6173684 56.9065789,15.2360526 57.0960526,14.85 C57.295,14.4473684 57.4963158,14.0589474 57.6881579,13.6776316 C57.8918421,13.275 58.0671053,12.8723684 58.2636842,12.4934211 C58.4744737,12.0907895 58.7136842,11.7213158 58.9126316,11.3494737 C59.1305263,10.9444737 59.3057895,10.5418421 59.5094737,10.1794737 C59.7368421,9.77210526 59.9310526,9.37657895 60.1394737,9.02842105 C60.3881579,8.61157895 60.6723684,8.27289474 60.8831579,7.95315789 C61.1247368,7.58368421 61.4089474,7.25921053 61.6718421,6.93 C61.9465789,6.58421053 62.1739474,6.21 62.4676316,5.90684211 C62.7731579,5.58947368 63.1260526,5.33605263 63.4457895,5.05894737 C63.7797368,4.77473684 64.1089474,4.49763158 64.4571053,4.25368421 C64.8147368,4.00026316 65.1463158,3.71605263 65.5157895,3.50526316 C65.8921122,3.29308048 66.277763,3.09788432 66.6715789,2.92026316 C67.0718421,2.73552632 67.4934211,2.63131579 67.8913158,2.48447368 C68.3057895,2.33526316 68.6965789,2.13394737 69.0992105,2.02263158 C69.5255263,1.90421053 69.9589474,1.83315789 70.3686842,1.75026316 C70.8068421,1.66263158 71.2331579,1.57973684 71.6452632,1.52763158 C72.0952632,1.47078947 72.5286842,1.485 72.9360526,1.45657895 C73.3978947,1.43052632 74.1510526,1.31921053 74.7360526,1.42578947 C75.4394737,1.55368421 75.565,1.70763158 75.2168421,2.22631579 C75.0060526,2.54131579 74.5892105,3.25657895 74.3121053,3.68052632 C74.0942105,4.01921053 73.8384211,4.37921053 73.5826316,4.78421053 C73.3623684,5.13473684 73.1255263,5.50894737 72.8792105,5.90921053 C72.6565789,6.26447368 72.4126316,6.63394737 72.1710526,7.03184211 C71.9507895,7.39421053 71.74,7.78263158 71.5031579,8.18052632 L70.8305263,9.31973684 C70.6126316,9.69157895 70.3805263,10.0705263 70.1531579,10.4636842 C69.9376316,10.8378947 69.6865789,11.205 69.4615789,11.6005263 C69.2484211,11.9771053 69.0542105,12.3773684 68.8339474,12.7705263 C68.6207895,13.1494737 68.1068421,14.2152632 67.8723684,14.6060526 C67.3939474,15.4065789 67.8297368,15.3876316 68.2465789,15.3 C68.6634211,15.2123684 69.7860526,14.8784211 70.2028947,14.7931579 C70.6197368,14.7102632 71.0318421,14.6060526 71.4510526,14.5255263 C71.8702632,14.445 72.2965789,14.4236842 72.7157895,14.3455263 C73.135,14.2697368 73.5565789,14.2152632 73.9734211,14.1418421 C74.395,14.0660526 74.8071053,13.9642105 75.2263158,13.8955263 C75.6455263,13.8244737 76.0623684,13.7273684 76.4815789,13.6586842 C76.9007895,13.5923684 77.3247368,13.5544737 77.7463158,13.4928947 C78.1678947,13.4265789 78.58,13.3081579 79.0015789,13.2489474 C79.4255263,13.1873684 79.8494737,13.1447368 80.2710526,13.0878947 C80.6926316,13.0310526 81.1213158,13.0121053 81.5428947,12.96 C81.9668421,12.9055263 82.3907895,12.8889474 82.8123684,12.8392105 C83.2386842,12.7894737 83.6507895,12.6615789 84.0723684,12.6165789 C84.4986842,12.5692105 84.9202632,12.5123684 85.3394737,12.4721053 C85.7657895,12.4294737 86.1921053,12.4389474 86.6160526,12.4010526 C87.04,12.3607895 87.4663158,12.3418421 87.8855263,12.3063158 C88.3118421,12.2731579 88.7334211,12.1973684 89.1573684,12.1665789 C89.5836842,12.1357895 90.01,12.1286842 90.4339474,12.1026316 C90.8602632,12.0765789 91.2865789,12.0671053 91.7057895,12.0457895 C92.1321053,12.0244737 92.5584211,12.0221053 92.9776316,12.0078947 C93.4063158,11.9913158 93.8302632,11.9273684 94.2518421,11.9155263 C94.6781579,11.9036842 95.1021053,11.9794737 95.5213158,11.9747368 C95.9476316,11.9676316 96.3692105,11.9652632 96.7884211,11.9652632 C97.2123684,11.9652632 97.6386842,11.9463158 98.0697368,11.9534211 C98.4936842,11.9605263 98.92,11.9013158 99.3486842,11.9155263 C99.7726316,11.9273684 100.196579,12.0102632 100.622895,12.0292105 C101.049211,12.0457895 101.477895,11.9960526 101.906579,12.0221053 C102.332895,12.0505263 102.754474,12.1594737 103.178421,12.195 C103.604737,12.2281579 104.033421,12.2281579 104.459737,12.2707895 C104.886053,12.3134211 105.305263,12.4034211 105.729211,12.4531579 C106.155526,12.5052632 106.591316,12.4673684 107.015263,12.5289474 C107.441579,12.5881579 107.863158,12.6521053 108.284737,12.7207895 C108.708684,12.7918421 109.127895,12.8794737 109.544737,12.9623684 C109.968684,13.0452632 110.373684,13.1873684 110.790526,13.2821053 C111.209737,13.3768421 111.628947,13.4668421 112.038684,13.5757895 C112.457895,13.6847368 112.879474,13.7605263 113.286842,13.8836842 C113.701316,14.0092105 114.103947,14.1584211 114.504211,14.2981579 C114.913947,14.4402632 115.311842,14.5942105 115.707368,14.7528947 C116.11,14.9115789 116.477105,15.1365789 116.863158,15.3118421 C117.640837,15.664821 118.396195,16.0650421 119.125,16.5102632 C119.492105,16.74 119.859211,16.9602632 120.197895,17.2113158 C120.546053,17.4694737 120.908421,17.7063158 121.223421,17.9881579 C121.545526,18.2723684 121.810789,18.6157895 122.099737,18.9284211 C122.393421,19.2434211 122.661053,19.575 122.914474,19.9160526 C123.172632,20.2571053 123.430789,20.6028947 123.608421,20.9913158 C123.954211,21.7563158 123.518421,21.6236842 123.134737,21.4034211 C122.767632,21.1902632 122.346053,21.0576316 121.952895,20.8610526 C121.573947,20.6715789 121.209211,20.4252632 120.806579,20.25 C120.409383,20.0750301 120.008225,19.909197 119.603421,19.7526316 C119.205526,19.6010526 118.774474,19.5157895 118.36,19.3736842 C117.952632,19.2410526 117.554737,19.0610526 117.133158,18.9378947 C116.723421,18.8194737 116.304211,18.7034211 115.877895,18.5968421 C115.461053,18.495 115.046579,18.36 114.615526,18.2676316 C114.196316,18.1776316 113.767632,18.1018421 113.334211,18.0236842 C112.912632,17.9478947 112.479211,17.9147368 112.043421,17.8484211 C111.619474,17.7844737 111.190789,17.7134211 110.757368,17.6589474 C110.331053,17.6068421 109.897632,17.5878947 109.459474,17.5452632 C109.033158,17.5026316 108.599737,17.4836842 108.161579,17.4505263 C107.735263,17.4173684 107.304211,17.3463158 106.866053,17.3226316 C106.435,17.2989474 106.001579,17.3060526 105.563421,17.2894737 C105.132368,17.2728947 104.696579,17.2776316 104.256053,17.2705263 C103.827368,17.2634211 103.391579,17.2160526 102.953421,17.2160526 C102.515263,17.2160526 102.077105,17.28 101.636579,17.2871053 C101.198421,17.2942105 100.760263,17.2184211 100.319737,17.2326316 C99.8815789,17.2468421 99.4434211,17.2610526 99.0052632,17.28 C98.5647368,17.3013158 98.1289474,17.3368421 97.6907895,17.3652632 C97.2526316,17.3913158 96.8144737,17.4221053 96.3763158,17.4552632 C95.9381579,17.4860526 95.5,17.5263158 95.0665789,17.5665789 C94.6284211,17.6044737 94.1878947,17.6186842 93.7521053,17.6613158 C93.3139474,17.7063158 92.8828947,17.8081579 92.4494737,17.8555263 C92.0089474,17.9028947 91.5778947,17.9881579 91.1468421,18.0426316 C90.7063158,18.0947368 90.2634211,18.1136842 89.83,18.1705263 C89.3918421,18.2297368 88.9489474,18.2557895 88.5155263,18.3197368 C88.0797368,18.3813158 87.6486842,18.4855263 87.2176316,18.5494737 C86.7794737,18.6181579 86.3507895,18.7152632 85.9197368,18.7863158 C85.4815789,18.8573684 85.0363158,18.8478947 84.6076316,18.9236842 C84.1694737,18.9994737 83.7478947,19.1273684 83.3192105,19.2055263 C82.8834211,19.2860526 82.4523684,19.3571053 82.0260526,19.4376316 C81.5902632,19.5228947 81.1544737,19.5773684 80.7281579,19.6626316 L79.4397368,19.9231579 C79.0063158,20.0155263 78.5871053,20.1434211 78.1631579,20.2357895 C77.7273684,20.3305263 77.2868421,20.3778947 76.87,20.4726316 C76.4342105,20.5697368 76.0173684,20.7094737 75.5981579,20.8089474 C75.1647368,20.9107895 74.7289474,20.9747368 74.3121053,21.0742105 C73.8786842,21.1807895 73.4713158,21.3631579 73.0592105,21.465 C72.6494737,21.5692105 72.2136842,21.645 71.7684211,21.7634211 C71.3586842,21.8723684 70.9465789,22.0428947 70.5036842,22.1660526 C70.0939474,22.2797368 69.6581579,22.3578947 69.2176316,22.4834211 C68.8078947,22.6018421 68.3721053,22.6871053 67.9339474,22.815 C67.5218421,22.9357895 67.105,23.0921053 66.6692105,23.2223684 C66.2571053,23.3455263 65.8331579,23.4686842 65.3973684,23.6013158 C64.9852632,23.7268421 63.7228947,24.0986842 63.2965789,24.2644737 C62.605,24.5297368 62.5457895,24.7713158 62.3539474,25.1644737 C62.1928947,25.4889474 62.065,25.8560526 61.9039474,26.1828947 C61.7144737,26.5689474 61.5060526,26.9076316 61.3876316,27.1610526 C61.1981579,27.5613158 61.0560526,27.9805263 60.8736842,28.3736842 C60.6865789,28.7763158 60.4710526,29.1623684 60.2910526,29.5555263 C60.1063158,29.9581579 59.9547368,30.3726316 59.7794737,30.7705263 C59.5994737,31.1755263 59.4715789,31.5994737 59.3010526,31.9997368 C59.1257895,32.4047368 58.9055263,32.7884211 58.735,33.1910526 C58.5644737,33.5984211 58.4271053,34.02 58.2613158,34.4226316 C58.0955263,34.8323684 57.8871053,35.2231579 57.7284211,35.6305263 C57.5673684,36.0402632 57.4276316,36.4571053 57.2736842,36.8644737 C57.1173684,37.2765789 57.0013158,37.7005263 56.8521053,38.1102632 C56.7028947,38.5247368 56.5039474,38.9202632 56.3594737,39.3323684 C56.2173684,39.7468421 56.1036842,40.1731579 55.9639474,40.5876316 C55.8242105,41.0044737 55.6986842,41.4236842 55.5636842,41.8428947 C55.4310526,42.2573684 55.2842105,42.6718421 55.1563158,43.0910526 C55.0307895,43.5102632 54.8673684,43.9176316 54.7442105,44.3392105 C54.6210526,44.7584211 54.5594737,45.1965789 54.4410526,45.6205263 C54.3226316,46.0421053 54.235,46.4731579 54.1236842,46.8994737 C54.0052632,47.34 53.8086842,47.745 53.7068421,48.1618421 C53.5955263,48.6071053 53.5363158,49.05 53.4415789,49.4692105 C53.3397368,49.9192105 53.2686842,50.3573684 53.1881579,50.7742105 C53.0981579,51.2289474 53.0034211,51.66 52.9371053,52.0768421 C52.8613158,52.5386842 52.8115789,52.9768421 52.7618421,53.3936842 C52.7097368,53.8602632 52.5960526,54.2936842 52.5771053,54.7057895 C52.5534211,55.1865789 52.57,55.6318421 52.5936842,56.0368421 C52.6221053,56.5271053 52.7736842,56.9486842 52.8707895,57.3323684 C52.9939474,57.8178947 53.0981579,58.2442105 53.3302632,58.5592105 C53.5173684,58.8102632 53.7328947,59.0328947 54.0076316,59.1560526 C54.6234211,59.4260526 54.5878947,59.7197368 54.3534211,59.8428947 C54.1165789,59.9636842 53.8347368,60.0726316 53.5078947,60.1626316 C52.9828527,60.2926531 52.4428711,60.3523856 51.9021053,60.3402632 L51.9021053,60.3307895 M79.1626316,31.1921053 C78.7505263,31.1921053 78.3478947,31.365 77.9310526,31.5165789 C77.5521053,31.6515789 77.1684211,31.8244737 76.7942105,32.0755263 C76.4602632,32.3005263 76.1026316,32.5373684 75.7757895,32.8476316 C75.4658383,33.1414302 75.1732389,33.4530091 74.8994737,33.7807895 C74.6342105,34.0957895 74.4021053,34.4557895 74.1486842,34.8205263 C73.9118421,35.1568421 73.6252632,35.4836842 73.3978947,35.8602632 C72.9603927,36.5951059 72.565018,37.3542253 72.2136842,38.1339474 C72.0407895,38.5128947 71.8536842,38.8989474 71.6878947,39.3039474 C71.5315789,39.69 71.4557895,40.1210526 71.3089474,40.5284211 C71.1668421,40.9239474 70.9773684,41.3123684 70.8447368,41.7268421 C70.7168421,42.1271053 70.66,42.5557895 70.5415789,42.9726316 C70.4255263,43.3776316 70.3142105,43.7921053 70.21,44.2113158 C70.1081579,44.6234211 69.985,45.0331579 69.895,45.4571053 C69.7978947,45.9094737 69.6818421,46.3428947 69.6107895,46.7644737 C69.5326316,47.2263158 69.4852632,47.6715789 69.4378947,48.0907895 C69.3857895,48.5644737 69.3194737,49.005 69.3052632,49.4242105 C69.2910526,49.905 69.3597368,50.3478947 69.3952632,50.76 C69.4402632,51.2502632 69.5421053,51.6742105 69.6581579,52.0626316 C69.8002632,52.5363158 69.9471053,52.9484211 70.1981579,53.2610526 C70.6078947,53.7702632 71.1455263,53.9857895 71.7921053,53.9857895 C72.1923684,53.9857895 72.6328947,53.9573684 73.0828947,53.7631579 C73.45,53.6044737 73.8171053,53.3463158 74.2078947,53.0644737 C74.5394737,52.8228947 74.8757895,52.5363158 75.2144737,52.2094737 C75.5176316,51.9205263 75.8681579,51.6410526 76.1713158,51.2905263 C76.4484211,50.9707895 76.6639474,50.5728947 76.9386842,50.2034211 C77.1921053,49.86 77.4265789,49.4834211 77.6657895,49.0902632 C77.8907895,48.7231579 78.1915789,48.3797368 78.4,47.9771053 C78.6036842,47.5910526 78.7765789,47.1765789 78.9613158,46.7644737 C79.1413158,46.3618421 79.255,45.9284211 79.4207895,45.5092105 C79.5818421,45.0994737 79.7807895,44.6968421 79.9276316,44.2752632 C80.0697368,43.8536842 80.2426316,43.4392105 80.3681579,43.0105263 C80.4960526,42.5842105 80.5860526,42.1436842 80.695,41.715 C80.8063158,41.2792105 80.8584211,40.8339474 80.9484211,40.4005263 C81.0431579,39.96 81.1544737,39.5242105 81.2255263,39.0955263 C81.2989474,38.6431579 81.4055263,38.205 81.4505263,37.7692105 C81.4991113,37.3251845 81.5330771,36.8796805 81.5523684,36.4334211 C81.5713158,35.9668421 81.5239474,35.5168421 81.505,35.0952632 C81.4813158,34.6215789 81.4813158,34.1668421 81.4078947,33.7618421 C81.3155263,33.2810526 81.1118421,32.8736842 80.9413158,32.5136842 C80.7967032,32.1772447 80.578131,31.8777198 80.3018421,31.6373684 C80.0200347,31.4003455 79.6678674,31.2629753 79.3,31.2465789 C79.2265789,31.2347368 79.2336842,31.1921053 79.1626316,31.1921053 M70.8731579,60.3947368 C70.4113158,60.3947368 69.9518421,60.4610526 69.5065789,60.3994737 C69.0551847,60.3295326 68.6095189,60.2266257 68.1731579,60.0915789 C67.7373684,59.9636842 67.3252632,59.7694737 66.9107895,59.5776316 C66.5010526,59.3905263 66.1031579,59.175 65.7147368,58.9263158 C65.3381579,58.6823684 64.9521053,58.4431579 64.5968421,58.1423684 C64.2723684,57.87 64.0118421,57.5360526 63.7252632,57.2376316 C63.1440512,56.6372555 62.6294799,55.9757773 62.1905263,55.2647368 C61.9787603,54.904329 61.7866377,54.5327339 61.615,54.1515789 C61.4373684,53.7773684 61.2005263,53.4221053 61.0607895,53.0242105 C60.9234211,52.6310526 60.8547368,52.2142105 60.7552632,51.8021053 C60.6605263,51.3994737 60.5136842,50.9992105 60.4521053,50.58 C60.3927268,50.16358 60.3516347,49.7447567 60.3289474,49.3247368 C60.3052632,48.9102632 60.3289474,48.4886842 60.3384211,48.0647368 C60.3478947,47.6502632 60.4071053,47.2357895 60.4497368,46.8118421 C60.4864094,46.3940017 60.5385504,45.9776636 60.6060526,45.5636842 C60.6771053,45.1563158 60.7955263,44.7560526 60.8926316,44.3415789 C60.9897368,43.9389474 61.0442105,43.5197368 61.1697368,43.11 C61.2881579,42.7168421 61.3994737,42.3071053 61.5486842,41.9068421 C61.6978947,41.4971053 61.9039474,41.1157895 62.0578947,40.725 C62.2213158,40.32 62.3468421,39.9055263 62.5126316,39.5194737 C62.6878947,39.1192105 62.9342105,38.7615789 63.1142105,38.3826316 C63.2989474,37.9871053 63.4576316,37.5868421 63.6494737,37.2126316 C63.8507895,36.8265789 64.0521053,36.4452632 64.2581579,36.0805263 C64.4736842,35.6992105 64.7484211,35.3628947 64.9686842,35.0052632 C65.2007895,34.6334211 65.3689474,34.2307895 65.6057895,33.885 C65.8544737,33.5226316 66.0913158,33.1626316 66.3447368,32.8286842 C66.6076316,32.4781579 66.9486842,32.2034211 67.2186842,31.8813158 C67.5005263,31.545 67.7634211,31.2110526 68.0476316,30.9055263 C68.3484211,30.5857895 68.6042105,30.2352632 68.905,29.9486842 C69.2223684,29.6455263 69.5752632,29.3968421 69.895,29.1292105 C70.2313158,28.845 70.5865789,28.6105263 70.9228947,28.3642105 C71.2781579,28.1036842 71.6097368,27.8407895 71.9626316,27.6181579 C72.3344737,27.3813158 72.6802632,27.1255263 73.0473684,26.9313158 C73.4357895,26.7228947 73.8360526,26.5642105 74.2126316,26.3984211 C74.62,26.2207895 75.0321053,26.1071053 75.4205263,25.9721053 C75.8397368,25.8228947 76.2494737,25.6997368 76.645,25.5931579 C77.0784211,25.4818421 77.4834211,25.3444737 77.8813158,25.2734211 C78.3313158,25.1952632 78.7576316,25.1905263 79.1531579,25.155 C79.6244737,25.11 80.0460526,25.0128947 80.4202632,25.0128947 C80.6310526,25.0128947 80.8394737,25.0318421 81.0478947,25.0413158 C81.4978947,25.0602632 81.9478947,25.1360526 82.3931579,25.2402632 C83.2819687,25.4364041 84.1325099,25.7772607 84.9107895,26.2492105 C85.2944737,26.4813158 85.6852632,26.7228947 86.0428947,27.0118421 C86.3910526,27.2960526 86.7060526,27.63 87.0186842,27.9663158 C87.3265789,28.2931579 87.6392105,28.6294737 87.9068421,29.0036842 C88.1507895,29.3423684 88.345,29.7189474 88.5510526,30.0884211 C88.7547368,30.4531579 88.9560526,30.8226316 89.1218421,31.2134211 C89.2876316,31.5947368 89.4534211,31.9831579 89.5836842,32.3905263 C89.7092105,32.7860526 89.7281579,33.2147368 89.8205263,33.6315789 C89.9105263,34.0365789 90.0715789,34.4344737 90.1284211,34.8584211 C90.1828947,35.2681579 90.1923684,35.6921053 90.2160526,36.1184211 C90.2397368,36.5328947 90.2444737,36.9521053 90.2397368,37.3784211 C90.235,37.7928947 90.2397368,38.2144737 90.2089474,38.6407895 C90.1781579,39.0552632 90.0976316,39.4697368 90.0407895,39.8960526 C89.9863158,40.3057895 89.9578947,40.7273684 89.8797368,41.1465789 C89.8039474,41.5539474 89.7423684,41.9755263 89.6428947,42.3923684 C89.5481579,42.795 89.3776316,43.1881579 89.2615789,43.6002632 C89.1407895,44.0218421 88.9702632,44.4292105 88.8234211,44.8460526 C88.6765789,45.2628947 88.5913158,45.7010526 88.4207895,46.1107895 C88.2526316,46.5157895 88.0181579,46.8947368 87.8286842,47.295 C87.6344737,47.6905263 87.4497368,48.0884211 87.2365789,48.4768421 C87.0234211,48.8628947 86.8552632,49.2773684 86.6231579,49.6515789 C86.3892553,50.0262846 86.1460214,50.395084 85.8936842,50.7576316 C85.6426316,51.1223684 85.3347368,51.4444737 85.0671053,51.795 C84.8018421,52.1455263 84.5815789,52.5386842 84.2997368,52.875 C84.0155263,53.2136842 83.6981579,53.5263158 83.3997368,53.8484211 C83.0989474,54.1752632 82.8028947,54.5021053 82.4878947,54.81 C82.1705263,55.1178947 81.8105263,55.3784211 81.4813158,55.6697368 C81.1497368,55.9634211 80.8465789,56.2902632 80.5055263,56.5626316 C80.155,56.8373684 79.7807895,57.0742105 79.4255263,57.3252632 C79.0607895,57.5834211 78.6747368,57.7965789 78.3028947,58.0263158 C77.9239474,58.2584211 77.5686842,58.5236842 77.185,58.7273684 C76.7894737,58.9357895 76.3821053,59.1110526 75.9842105,59.2839474 C75.1791456,59.6401065 74.3415761,59.91771 73.4831579,60.1128947 C73.0571234,60.223013 72.6254388,60.3099824 72.19,60.3734211 C71.7471053,60.4255263 71.3089474,60.3947368 70.8731579,60.3947368 M103.78,60.4657895 C103.320526,60.4657895 102.861053,60.5368421 102.413421,60.48 C101.961276,60.4154575 101.513573,60.3229111 101.072895,60.2028947 C100.63,60.0915789 100.208421,59.9139474 99.7868421,59.7481579 C99.3636212,59.5820429 98.9514633,59.389017 98.5528947,59.1702632 C98.1526316,58.95 97.7523684,58.7368421 97.3828947,58.4668421 C97.0181579,58.1968421 96.7102632,57.8557895 96.3786842,57.5407895 C95.7529206,56.93909 95.1982425,56.2675958 94.7255263,55.5394737 C94.5086752,55.1864342 94.3110198,54.8219576 94.1334211,54.4476316 C93.9486842,54.0781579 93.7071053,53.73 93.5578947,53.3368421 C93.4157895,52.9531579 93.3352632,52.5386842 93.2263158,52.1336842 C93.1173684,51.7381579 92.9610526,51.345 92.8852632,50.9305263 C92.8124226,50.5199924 92.7555377,50.1067869 92.7147368,49.6918421 C92.6721053,49.2844737 92.6744737,48.8628947 92.6602632,48.4413158 C92.6507895,48.0339474 92.6839474,47.6171053 92.7005263,47.1931579 C92.7171053,46.7834211 92.7313158,46.3689474 92.7715789,45.9497368 C92.8142105,45.54 92.9018421,45.1326316 92.9681579,44.7134211 C93.0321053,44.3084211 93.0510526,43.8868421 93.1386842,43.4747368 C93.2310526,43.0389474 93.3044737,42.6007895 93.4134211,42.1768421 C93.5223684,41.7457895 93.6928947,41.3336842 93.8184211,40.9144737 C93.9463158,40.4881579 94.0410526,40.0523684 94.1855263,39.6378947 C94.3276316,39.2186842 94.555,38.8302632 94.7160526,38.4228947 C94.8794737,38.0084211 95.0168421,37.5892105 95.1968421,37.1889474 C95.3768421,36.7863158 95.5639474,36.3836842 95.7628947,35.9905263 C95.9618421,35.595 96.2271053,35.2373684 96.4426316,34.8560526 C96.6605263,34.47 96.8215789,34.0507895 97.0536842,33.6813158 C97.2905263,33.3071053 97.5273684,32.9305263 97.7784211,32.5728947 C98.0342105,32.2105263 98.3728947,31.9144737 98.6452632,31.5710526 C98.92,31.2205263 99.1828947,30.87 99.4742105,30.5407895 C99.7655263,30.2092105 100.018947,29.8421053 100.326842,29.5294737 C100.639474,29.2144737 100.99,28.9444737 101.316842,28.6531579 C101.648421,28.3547368 102.003684,28.0989474 102.349474,27.8265789 C102.695263,27.5518421 103.026842,27.2652632 103.386842,27.0165789 C103.751579,26.7631579 104.095,26.4836842 104.471579,26.2586842 C104.850526,26.0313158 105.253158,25.8489474 105.643947,25.65 C106.039474,25.4510526 106.456316,25.3113158 106.858947,25.1407895 C107.266316,24.9726316 107.676053,24.8186842 108.090526,24.6813158 C108.509737,24.5415789 108.917105,24.3734211 109.343421,24.2692105 C109.769737,24.165 110.210263,24.1271053 110.643684,24.0560526 C111.077105,23.985 111.503421,23.85 111.941579,23.8144737 C112.377368,23.7789474 112.820263,23.7742105 113.263158,23.7742105 C113.360263,23.7742105 113.360263,23.7884211 113.459737,23.7907895 C114.392266,23.7891798 115.318486,23.9436832 116.2,24.2478947 C116.645263,24.3994737 117.083421,24.5676316 117.486053,24.7926316 C117.893421,25.02 118.265263,25.3136842 118.622895,25.6073684 C118.982895,25.9010526 119.335789,26.2089474 119.641316,26.5665789 C119.939737,26.9147368 120.181316,27.3173684 120.422895,27.7247368 C120.886711,28.4785222 121.230302,29.2999444 121.441316,30.1594737 C121.538421,30.5881579 121.514737,31.0381579 121.547895,31.4810526 C121.578684,31.9168421 121.668684,32.3573684 121.637895,32.8002632 C121.59386,33.2406569 121.519473,33.677485 121.415263,34.1076316 C121.322895,34.5339474 121.195,34.9555263 121.041053,35.3747368 C120.898436,35.7933029 120.729142,36.2022989 120.534211,36.5992105 C120.306463,37.0208768 120.040056,37.4204866 119.738421,37.7928947 C119.411579,38.2144737 119.101316,38.5910526 118.731842,38.8065789 C118.049737,39.2021053 117.372368,39.1973684 117.372368,39.1973684 C117.01,39.1973684 116.666579,39.0718421 116.320789,38.8989474 C116.003421,38.7426316 115.66,38.5815789 115.387632,38.2997368 C115.141316,38.0439474 114.966053,37.7076316 114.778947,37.3642105 C114.593997,37.0387325 114.453786,36.6897983 114.362105,36.3268421 C114.274474,35.9431579 114.186842,35.5642105 114.227105,35.2065789 C114.269737,34.8205263 114.407105,34.4486842 114.606053,34.1360526 C114.897368,33.6813158 115.12,33.2265789 115.165,32.7528947 C115.21,32.2484211 115.044211,31.7723684 114.797895,31.32 C114.549256,30.8439548 114.160782,30.4554809 113.684737,30.2068421 C113.201257,29.9685499 112.667584,29.8499559 112.128684,29.8610526 C111.797105,29.8610526 111.370789,29.8492105 110.873421,29.9889474 C110.518158,30.0907895 110.148684,30.2944737 109.724737,30.5194737 C109.388421,30.6994737 109.014211,30.8936842 108.642368,31.1778947 C108.334474,31.4147368 107.988684,31.6657895 107.659474,31.9878947 C107.38,32.2626316 107.131316,32.6107895 106.84,32.9589474 C106.584211,33.2668421 106.309474,33.5889474 106.046579,33.9536842 C105.790388,34.3138295 105.545532,34.6819044 105.312368,35.0573684 C105.075526,35.4339474 104.841053,35.8081579 104.627895,36.1942105 C104.414737,36.585 104.234737,36.99 104.045263,37.3878947 C103.855432,37.7877716 103.67694,38.1929333 103.51,38.6028947 C103.341842,39.0126316 103.178421,39.4247368 103.033947,39.8415789 C102.887105,40.2607895 102.721316,40.6752632 102.600526,41.0968421 C102.477368,41.5278947 102.399211,41.9636842 102.304474,42.3923684 C102.207368,42.8305263 102.148158,43.2686842 102.079474,43.6997368 C102.010789,44.145 101.984737,44.5878947 101.949211,45.0213158 C101.91645,45.4610481 101.902227,45.9019652 101.906579,46.3428947 C101.906579,46.7976316 101.880526,47.2381579 101.923158,47.6692105 C101.970526,48.1192105 101.994211,48.5692105 102.088947,48.9836842 C102.188421,49.4289474 102.366053,49.8410526 102.522368,50.2389474 C102.692895,50.6652632 102.913158,51.0442105 103.142895,51.3994737 C103.391579,51.7784211 103.630789,52.1526316 103.948158,52.4415789 C104.275,52.7423684 104.635,53.0147368 105.028158,53.2089474 C105.411842,53.4007895 105.847632,53.5168421 106.290526,53.6044737 C106.712105,53.6873684 107.143158,53.6992105 107.56,53.6992105 C108.017105,53.6992105 108.464737,53.6755263 108.891053,53.5878947 C109.331579,53.4931579 109.738947,53.3036842 110.146316,53.1378947 C110.560789,52.965 110.961053,52.7755263 111.342368,52.5457895 C111.726053,52.3136842 112.112105,52.0886842 112.460263,51.8163158 C112.820263,51.5368421 113.185,51.2668421 113.502368,50.9707895 C113.843421,50.6557895 114.103947,50.2792105 114.397632,49.9689474 C114.729211,49.6207895 115.020526,49.2773684 115.290526,48.9789474 C116.505526,47.6336842 116.825263,47.5815789 116.751842,48.8297368 C116.732895,49.1494737 116.680789,49.5331579 116.567105,49.9642105 C116.345853,50.740151 116.067189,51.4985591 115.733421,52.2331579 C115.574737,52.5884211 115.373421,52.9626316 115.157895,53.3628947 C114.963684,53.7157895 114.793158,54.1113158 114.549211,54.4831579 C114.326579,54.8242105 114.013947,55.1226316 113.743947,55.4684211 C113.484984,55.8022163 113.210745,56.1238747 112.922105,56.4323684 C112.637997,56.7470611 112.338417,57.047432 112.024474,57.3323684 C111.714211,57.6047368 111.422895,57.9244737 111.072368,58.1755263 C110.733684,58.4171053 110.342895,58.5923684 109.966316,58.8078947 C109.606316,59.0163158 109.262895,59.2721053 108.865,59.4497368 C108.486053,59.6202632 108.059737,59.6984211 107.647632,59.8357895 C107.256842,59.9660526 106.858947,60.1152632 106.435,60.2147368 C105.996842,60.3142105 105.551579,60.345 105.108684,60.3971053 C104.667477,60.4455092 104.223847,60.468442 103.78,60.4657895 M17.5126316,62.0810526 C17.0673684,62.0810526 16.6197368,62.1663158 16.1792105,62.1426316 C15.7339474,62.1189474 15.2910526,62.0573684 14.8528947,62.0076316 C14.41,61.9602632 13.9765789,61.8607895 13.5407895,61.7873684 C13.1034969,61.7151612 12.6683244,61.6306541 12.2357895,61.5339474 C11.7976316,61.4344737 11.3594737,61.3563158 10.9402632,61.2331579 C10.5068421,61.1052632 10.1042105,60.9063158 9.69447368,60.7547368 C9.2793935,60.6027635 8.87015856,60.4352774 8.46763158,60.2526316 C8.06573057,60.0705921 7.67217886,59.8706552 7.28815789,59.6534211 C6.90437752,59.4273231 6.53207582,59.1822837 6.17263158,58.9192105 C5.80315789,58.6586842 5.39815789,58.4478947 5.06657895,58.1565789 C4.72552632,57.8605263 4.44131579,57.5123684 4.14052632,57.1855263 C3.83263158,56.8539474 3.49394737,56.5531579 3.23105263,56.1978947 C2.96274779,55.8381225 2.7152384,55.4633 2.48973684,55.0752632 C2.26236842,54.6844737 2.08236842,54.27 1.90473684,53.8626316 C1.72473684,53.4505263 1.59921053,53.0194737 1.47131579,52.5931579 C1.33825623,52.1658784 1.23147759,51.7308544 1.15157895,51.2905263 C1.07578947,50.85 1.06394737,50.4023684 1.045,49.9547368 C1.02605263,49.5094737 0.973947368,49.0618421 1.01421053,48.6142105 C1.05210526,48.1689474 1.09236842,47.7189474 1.18710526,47.2784211 C1.28184211,46.845 1.45236842,46.4257895 1.60394737,45.9994737 C1.75789474,45.5589474 1.9,45.1231579 2.10368421,44.7394737 C2.31921053,44.3297368 2.62473684,43.9910526 2.89,43.6357895 C3.16236842,43.2686842 3.43,42.9063158 3.745,42.5936842 C4.06947368,42.2763158 4.41052632,41.9778947 4.76815789,41.715 C5.13289474,41.4426316 5.545,41.2555263 5.93342105,41.0352632 C6.32894737,40.8126316 6.69842105,40.545 7.10815789,40.3721053 C7.52973684,40.1944737 7.95131579,40.0263158 8.37289474,39.8960526 C8.81578947,39.7586842 9.27763158,39.7421053 9.70394737,39.6521053 C10.1634211,39.5573684 10.6039474,39.4626316 11.0302632,39.4176316 C11.5086842,39.3655263 11.9586842,39.2684211 12.3660526,39.2778947 C13.7610526,39.3086842 13.5502632,39.7373684 12.8563158,40.0523684 C12.4868421,40.2228947 12.1836842,40.5426316 11.8426316,40.815 C11.5252632,41.0707895 11.2457895,41.3881579 10.9426316,41.7031579 C10.6607895,41.9968421 10.3623684,42.2952632 10.1089474,42.6457895 C9.86736842,42.9773684 9.60210526,43.3089474 9.39842105,43.695 C9.19805116,44.0699689 9.02241335,44.4576379 8.87263158,44.8555263 C8.73052632,45.2344737 8.65,45.6536842 8.54342105,46.08 C8.44868421,46.4731579 8.32078947,46.8828947 8.25921053,47.3210526 C8.19763158,47.7947368 8.24736842,48.2684211 8.25921053,48.7302632 C8.26774129,49.6693497 8.43345344,50.6003798 8.74947368,51.4847368 C9.0829935,52.3633523 9.57242457,53.1745242 10.1942105,53.8792105 C10.4713158,54.1989474 10.7863158,54.4713158 11.1107895,54.7436842 C11.4328947,55.0160526 11.755,55.2836842 12.1126316,55.5039474 C12.4702632,55.7242105 12.8563158,55.8923684 13.2447368,56.0581579 C13.6284211,56.2239474 14.0121053,56.3992105 14.4218421,56.5105263 C14.8244737,56.6194737 15.2389474,56.6857895 15.6605263,56.7426316 C16.0726316,56.7971053 16.4918421,56.8018421 16.9181579,56.8018421 C17.3397368,56.8018421 17.7755263,56.8634211 18.2089474,56.8065789 C18.6257895,56.7544737 19.0307895,56.5815789 19.4547368,56.475 C19.8621053,56.3684211 20.2789474,56.2642105 20.6863158,56.1055263 C21.0873887,55.9514009 21.479574,55.7750757 21.8610526,55.5773684 C22.2328947,55.3807895 22.5881579,55.1415789 22.9505263,54.8952632 C23.3010526,54.6631579 23.6681579,54.4405263 24.0092105,54.1610526 C24.3336842,53.8934211 24.625,53.5784211 24.94,53.2681579 C25.2384211,52.9744737 25.5084211,52.6452632 25.7973684,52.3113158 C26.0697368,51.9939474 26.3871053,51.6955263 26.6476316,51.3402632 C26.8963158,51.0039474 27.1734211,50.67 27.4102632,50.2981579 C27.6328947,49.9428947 27.7892105,49.5331579 28,49.1471053 C28.2013158,48.7776316 28.45,48.4223684 28.6394737,48.0244737 C28.8218421,47.6455263 28.9852632,47.2476316 29.1557895,46.8402632 C29.3168421,46.4542105 29.4163158,46.0302632 29.5655263,45.6181579 C29.7076316,45.2226316 29.8592105,44.82 29.9918421,44.4007895 C30.1197368,43.9981579 30.2997368,43.6026316 30.4181579,43.1786842 C30.5294737,42.7736842 30.565,42.3378947 30.6668421,41.9115789 C30.7615789,41.4971053 30.8871053,41.0826316 30.9747368,40.6539474 C31.0576316,40.2371053 31.1239474,39.8107895 31.1973684,39.375 C31.2731579,38.9392105 31.3915789,38.4986842 31.4413158,38.0439474 C31.4910526,37.6010526 31.4744737,37.1439474 31.5028947,36.6892105 C31.5289474,36.2415789 31.5810526,35.7915789 31.5881579,35.3344737 C31.5976316,34.8892105 31.6307895,34.4344737 31.6260526,33.9797368 C31.6189474,33.5297368 31.5502632,33.0797368 31.5313158,32.625 C31.5147368,32.175 31.51,31.725 31.4815789,31.2726316 C31.4531579,30.8226316 31.42,30.3702632 31.3868421,29.9178947 C31.3513158,29.4678947 31.3252632,29.0155263 31.285,28.5655263 C31.2447368,28.1155263 31.1831579,27.6655263 31.1405263,27.2155263 L31.0078947,25.8655263 C30.9652632,25.4392105 30.9297368,25.0105263 30.8894737,24.5865789 C30.8492105,24.1602632 30.8444737,23.7292105 30.8065789,23.3005263 C30.7686842,22.8742105 30.7023684,22.4478947 30.6644737,22.0215789 C30.6313158,21.5952632 30.5792105,21.1689474 30.5507895,20.7426316 C30.52,20.3163158 30.4702632,19.8876316 30.4489474,19.4613158 C30.4276316,19.0302632 30.3992105,18.6015789 30.3897368,18.1752632 C30.3755263,17.7442105 30.4205263,17.3155263 30.4205263,16.8892105 C30.4205263,16.4557895 30.4726316,16.0294737 30.4844737,15.6055263 C30.4986842,15.1721053 30.4702632,14.7434211 30.5010526,14.3194737 C30.5342105,13.8860526 30.5507895,13.4573684 30.6028947,13.0357895 C30.655,12.6047368 30.7757895,12.1902632 30.8515789,11.7734211 C30.9273684,11.3471053 31.0339474,10.935 31.1357895,10.5252632 C31.2423684,10.1060526 31.33,9.68684211 31.4626316,9.28421053 C31.6,8.87447368 31.7231579,8.46473684 31.8936842,8.07631579 C32.0618421,7.68078947 32.2773684,7.30894737 32.4857895,6.93473684 C32.6894737,6.56289474 32.8694737,6.16736842 33.1134211,5.81684211 C33.364087,5.46836061 33.6337036,5.13390955 33.9210526,4.815 C34.2005263,4.49763158 34.525,4.21815789 34.8447368,3.92447368 C35.1597368,3.64026316 35.5031579,3.39631579 35.8394737,3.14052632 C36.1734211,2.88236842 36.4765789,2.57684211 36.8342105,2.35184211 C37.1894737,2.12447368 37.5518421,1.90184211 37.9260526,1.70526316 C38.3002632,1.51105263 38.7076316,1.37368421 39.0960526,1.21263158 C39.4844737,1.04921053 39.8871053,0.918947368 40.2897368,0.786315789 C40.69,0.658421053 41.0855263,0.502105263 41.4976316,0.402631579 C41.905,0.307894737 42.3265789,0.243947368 42.7457895,0.177631579 C43.1602632,0.113684211 43.5818421,0.0781578947 44.0034211,0.0473684211 C44.4226316,0.0165789474 44.8442105,0.0165789474 45.2705263,0.0165789474 C45.7110526,0.0165789474 46.1468421,-0.0189473684 46.5731579,0.0142105263 C47.0113158,0.0473684211 47.4305263,0.18 47.8521053,0.246315789 C48.2878947,0.315 48.7094737,0.397894737 49.1239474,0.499736842 C49.5526316,0.603947368 49.9718421,0.705789474 50.3744737,0.845526316 C50.7913158,0.987631579 51.2176316,1.08947368 51.6036842,1.26947368 C52.0063158,1.45421053 52.3592105,1.71947368 52.7168421,1.93973684 C53.0957895,2.17184211 53.4960526,2.36131579 53.8228947,2.62894737 C54.1686842,2.90842105 54.4268421,3.26842105 54.7086842,3.58105263 C55.0047368,3.91263158 55.2913158,4.23473684 55.5115789,4.59947368 C55.7365789,4.97842105 55.8810526,5.38105263 56.0184211,5.78842105 C56.1557895,6.20052632 56.3357895,6.60552632 56.3736842,7.04131579 C56.4068421,7.41078947 56.3926316,7.78973684 56.3239474,8.145 C56.2528947,8.50026316 56.1226316,8.85552632 55.9544737,9.18473684 C55.7934211,9.50447368 55.5376316,9.77684211 55.2865789,10.0492105 C55.0023684,10.3642105 54.6778947,10.6389474 54.3155263,10.8544737 C53.9555263,11.07 53.5742105,11.2760526 53.1621053,11.3873684 C52.4241948,11.5705681 51.654697,11.5867511 50.9097368,11.4347368 C50.59,11.3684211 50.2892105,11.2168421 49.9765789,11.0913158 C49.3536842,10.8426316 49.0860526,10.5821053 48.9842105,10.2386842 C48.8705263,9.85026316 48.9771053,9.41684211 49.1168421,8.88868421 C49.2186842,8.49789474 49.3063158,8.06684211 49.3157895,7.62631579 C49.314385,7.20336087 49.1892426,6.79006159 48.9557895,6.43736842 C48.7686842,6.12947368 48.5318421,5.78842105 48.115,5.49473684 C47.767152,5.24856898 47.3815963,5.0605906 46.9734211,4.93815789 C46.5652416,4.81100555 46.1408994,4.74320652 45.7134211,4.73684211 C45.3036842,4.73684211 44.8844737,4.80789474 44.4818421,4.90973684 C44.080345,5.01541583 43.6918901,5.16555484 43.3236842,5.35736842 C42.9660526,5.54210526 42.6652632,5.83342105 42.3360526,6.09868421 C42.0210526,6.35210526 41.68,6.58894737 41.4028947,6.90868421 C41.1423684,7.20947368 40.8771053,7.56236842 40.6260526,7.97447368 C40.4128947,8.32263158 40.2660526,8.73947368 40.0813158,9.17526316 C39.9155263,9.55421053 39.7165789,9.94736842 39.5839474,10.3973684 C39.4678947,10.7952632 39.3613158,11.2263158 39.2784211,11.6834211 C39.2026316,12.0931579 39.1055263,12.5265789 39.0628947,12.9884211 C39.0251523,13.4287901 39.0038218,13.8704119 38.9989474,14.3123684 C38.9894737,14.7339474 39.0321053,15.1744737 39.0510526,15.6363158 C39.07,16.0578947 39.0913158,16.4984211 39.1363158,16.9555263 C39.1789474,17.3818421 39.2618421,17.8152632 39.3257895,18.2676316 C39.3873684,18.6821053 39.4702632,19.0989474 39.5389474,19.5252632 C39.61,19.9397368 39.6384211,20.3660526 39.7142105,20.79 C39.7852632,21.2044737 39.8894737,21.6189474 39.97,22.0428947 C40.0457895,22.455 40.1405263,22.8718421 40.2210526,23.2981579 C40.2992105,23.7078947 40.3323684,24.1318421 40.4105263,24.5486842 C40.4886842,24.9607895 40.6236842,25.3657895 40.6994737,25.785 C40.7728947,26.1971053 40.7634211,26.6281579 40.8321053,27.045 C40.9031579,27.4594737 40.9671053,27.8739474 41.0310526,28.2931579 C41.095,28.71 41.1731579,29.1244737 41.2276316,29.5436842 C41.2844737,29.9605263 41.3389474,30.3797368 41.3886842,30.7989474 C41.4360526,31.2181579 41.4881579,31.6397368 41.5260526,32.0613158 C41.5639474,32.4805263 41.5734211,32.9044737 41.5971053,33.3260526 C41.6255263,33.7476316 41.7013158,34.1692105 41.7155263,34.5931579 C41.7297368,35.0147368 41.77,35.4363158 41.77,35.8602632 C41.7676316,36.2818421 41.7202632,36.7057895 41.7036842,37.1297368 C41.6871053,37.5513158 41.6278947,37.9705263 41.5923684,38.3944737 C41.5592105,38.8136842 41.5544737,39.2376316 41.5,39.6592105 C41.4478947,40.0784211 41.4147368,40.5023684 41.3413158,40.9192105 C41.2702632,41.3360526 41.1068421,41.7339474 41.0144737,42.1507895 C40.9221053,42.5605263 40.87,42.9797368 40.7539474,43.3918421 C40.6402632,43.8086842 40.5076316,44.2160526 40.3797368,44.6210526 C40.2494737,45.0307895 40.0836842,45.4263158 39.9368421,45.8242105 C39.7901445,46.2251851 39.6353762,46.6231607 39.4726316,47.0178947 C39.3068421,47.4181579 39.1694737,47.8231579 38.9894737,48.2068421 C38.8071053,48.6 38.5726316,48.96 38.3736842,49.3342105 C38.1723684,49.7131579 38.0042105,50.1086842 37.7863158,50.4734211 C37.5684211,50.8428947 37.3078947,51.1839474 37.0710526,51.5392105 C36.8342105,51.8944737 36.6518421,52.29 36.3960526,52.6286842 C36.1402632,52.9744737 35.8465789,53.2871053 35.5742105,53.6139474 C35.2994737,53.9431579 35.0602632,54.3007895 34.7689474,54.6157895 C34.48,54.9284211 34.1484211,55.2055263 33.8405263,55.5015789 C33.5326316,55.7976316 33.1939474,56.0557895 32.8694737,56.3352632 C32.5473684,56.6147368 32.2394737,56.9084211 31.9007895,57.1736842 C31.5668421,57.4342105 31.2186842,57.6805263 30.8681579,57.9268421 C30.52,58.1707895 30.1457895,58.3768421 29.7810526,58.6065789 C29.4234211,58.8315789 29.0634211,59.0613158 28.6892105,59.2744737 C28.3116503,59.4835266 27.9277867,59.6809873 27.5381579,59.8665789 C27.1497368,60.0560526 26.7447368,60.2052632 26.3444737,60.3686842 C25.9465789,60.5344737 25.5605263,60.7263158 25.1507895,60.8660526 C24.7434211,61.0081579 24.3218421,61.0981579 23.9026316,61.2165789 C23.4881579,61.3326316 23.0807895,61.4865789 22.6592105,61.5789474 C22.2376316,61.6736842 21.8065789,61.7163158 21.3802632,61.785 C20.9539474,61.8560526 20.5323684,61.9436842 20.1013158,61.9886842 C19.6726316,62.0360526 19.2439474,62.1236842 18.8105263,62.145 C18.3818421,62.1686842 17.9460526,62.1260526 17.5126316,62.1260526 C17.4865789,62.1236842 17.5126316,62.0786842 17.5126316,62.0786842 M153.523947,67.8434211 C153.055,67.8434211 152.586053,67.9239474 152.121842,67.8907895 C151.652895,67.8552632 151.188684,67.7771053 150.729211,67.7084211 C150.265,67.6373684 149.812632,67.5118421 149.360263,67.4076316 C148.90503,67.3040802 148.453913,67.1832028 148.007895,67.0452632 C147.593421,66.915 147.178947,66.8013158 146.776316,66.6402632 C146.378421,66.4744737 146.016053,66.2376316 145.632368,66.0434211 C144.862355,65.6581946 144.122842,65.2148036 143.420263,64.7171053 C143.072105,64.4660526 142.742895,64.1889474 142.406579,63.9165789 C142.075,63.6442105 141.693684,63.4263158 141.376316,63.1326316 C141.063684,62.8389474 140.791316,62.4978947 140.492895,62.1852632 C140.194474,61.875 139.853421,61.6002632 139.571579,61.2710526 C139.289864,60.9433904 139.016616,60.6085431 138.752105,60.2668421 C138.491579,59.9257895 138.254737,59.5610526 138.003684,59.2081579 C137.757368,58.8552632 137.541842,58.4786842 137.309737,58.1139474 C137.08,57.7492105 136.840789,57.3892105 136.622895,57.015 C136.407368,56.6431579 136.229737,56.2476316 136.026053,55.8663158 C135.824737,55.485 135.576053,55.125 135.391316,54.7365789 C135.201842,54.3481579 135.000526,53.9644737 134.825263,53.5689474 C134.652368,53.1710526 134.536316,52.7518421 134.377632,52.3492105 C134.218947,51.9465789 134.024737,51.5557895 133.880263,51.1507895 C133.738158,50.7410526 133.671842,50.3052632 133.543947,49.8955263 C133.411316,49.4834211 133.255,49.0784211 133.141316,48.6639474 C133.024497,48.2476154 132.91553,47.8291202 132.814474,47.4086842 C132.715,46.9823684 132.658158,45.8265789 132.468684,45.4428947 C132.255526,45.0165789 132.201053,44.91 131.722632,45.3907895 C131.417105,45.6963158 130.735,46.4565789 130.476842,46.7881579 C130.209211,47.1268421 129.908421,47.4323684 129.655,47.7686842 C129.394474,48.1097368 129.112632,48.4318421 128.866316,48.7728947 C128.615263,49.1186842 128.392632,49.4834211 128.153421,49.8315789 C127.911842,50.1844737 127.712895,50.5657895 127.480789,50.9163158 C127.246316,51.2715789 126.990526,51.6126316 126.765526,51.9726316 C126.540526,52.335 126.28,52.6736842 126.064474,53.0384211 C125.851316,53.4055263 125.638158,53.775 125.432105,54.1492105 C125.228421,54.5163158 125.067368,54.9142105 124.868421,55.2907895 C124.671842,55.665 124.435,56.0226316 124.243158,56.4039474 C124.053684,56.7828947 123.94,57.1997368 123.755263,57.5881579 C123.575263,57.9671053 123.253158,58.7747368 123.049474,59.1560526 C122.623158,59.9565789 122.606579,60.2573684 121.879474,59.9565789 C121.533684,59.8144737 120.877632,59.2365789 120.636053,58.8931579 C120.406324,58.5346119 120.232243,58.1433297 120.119737,57.7326316 C119.987448,57.3318831 119.889204,56.920688 119.826053,56.5034211 C119.771579,56.1102632 119.778684,55.6839474 119.764474,55.2386842 C119.755,54.8360526 119.740789,54.4097368 119.764474,53.9715789 C119.785789,53.5665789 119.797632,53.1426316 119.847368,52.7092105 C119.894737,52.3018421 120.043947,51.8968421 120.115,51.4681579 C120.186053,51.0607895 120.174211,50.6273684 120.266579,50.2057895 C120.354211,49.8007895 120.482105,49.3957895 120.591053,48.9789474 C120.697632,48.5763158 120.820789,48.1689474 120.946316,47.7592105 C121.069474,47.3589474 121.176053,46.9468421 121.318158,46.5442105 C121.462632,46.1297368 121.649737,45.7318421 121.794211,45.3197368 C121.941053,44.9052632 122.052368,44.4813158 122.199211,44.0692105 C122.348421,43.6571053 122.473947,43.2355263 122.623158,42.8257895 C122.774737,42.4136842 122.983158,42.0252632 123.132368,41.6131579 C123.286316,41.2034211 123.475789,40.8078947 123.629737,40.3981579 C123.781316,39.9860526 123.864211,39.5478947 124.018158,39.1405263 C124.172105,38.7307895 124.382895,38.3423684 124.539211,37.935 C124.695526,37.5252632 124.837632,37.1107895 124.996316,36.7034211 C125.155,36.2960526 125.256842,35.865 125.415526,35.46 C125.576579,35.0502632 125.747105,34.6476316 125.908158,34.2426316 C126.071579,33.8352632 126.291842,33.4539474 126.452895,33.0489474 C126.618684,32.6415789 126.715789,32.2081579 126.879211,31.8078947 C127.045,31.4005263 127.241579,31.0073684 127.407368,30.6071053 C127.575526,30.1997368 127.731842,29.7923684 127.9,29.3921053 C128.070526,28.9894737 128.290789,28.6081579 128.461316,28.2078947 C128.634211,27.8052632 128.755,27.3813158 128.927895,26.9834211 C129.103158,26.5807895 129.311579,26.1947368 129.484474,25.7992105 C129.662105,25.3942105 129.868158,25.0081579 130.045789,24.615 C130.225789,24.2123684 130.356053,23.7907895 130.536053,23.3976316 C130.718421,22.995 130.917368,22.6042105 131.099737,22.2134211 L131.653947,21.0268421 C131.843421,20.6265789 132.044737,20.2381579 132.229474,19.8521053 C132.421316,19.4518421 132.594211,19.0515789 132.783684,18.6655263 C132.980263,18.2676316 133.172105,17.8744737 133.366316,17.4907895 C133.565263,17.0952632 133.768947,16.7092105 133.965526,16.3302632 C134.171579,15.9347368 134.406053,15.5652632 134.605,15.1886842 C134.815789,14.7955263 134.998158,14.4 135.201842,14.0281579 C135.417368,13.6373684 135.611579,13.2465789 135.822368,12.8794737 C136.052105,12.4792105 136.272368,12.0860526 136.532895,11.7284211 C136.798158,11.3542105 137.072895,10.9942105 137.366579,10.6626316 C137.669737,10.3215789 138.022632,10.035 138.349474,9.73657895 C138.685789,9.42868421 139.06,9.17763158 139.415263,8.91236842 C139.78,8.64 140.123421,8.34631579 140.5,8.11657895 C140.890789,7.87973684 141.276842,7.64052632 141.67,7.44394737 C142.082105,7.24026316 142.515526,7.11236842 142.925263,6.94657895 C143.351579,6.77605263 143.782632,6.64815789 144.197105,6.52026316 C144.642368,6.37815789 145.066316,6.23131579 145.483158,6.13184211 C145.947368,6.02052632 146.383158,5.90447368 146.795263,5.83342105 C147.287895,5.75052632 147.740263,5.69368421 148.131053,5.68184211 C149.495263,5.63921053 149.282105,5.85236842 148.758684,6.68842105 C148.559737,7.00342105 148.285,7.34684211 148.015,7.77552632 C147.801842,8.10947368 147.541316,8.46473684 147.287895,8.87447368 C147.074737,9.22026316 146.911316,9.63710526 146.667368,10.0373684 C146.454211,10.3926316 146.236316,10.7739474 145.999474,11.1718421 C145.786316,11.5318421 145.521053,11.8823684 145.286579,12.2802632 C145.073421,12.6426316 144.836579,13.0144737 144.609211,13.41 C144.396053,13.7747368 144.218421,14.1773684 143.993421,14.5705263 C143.780263,14.94 143.550526,15.3118421 143.327895,15.705 C143.117105,16.0744737 142.892105,16.4510526 142.671842,16.8442105 C142.463421,17.2184211 142.233684,17.5926316 142.015789,17.9857895 C141.809737,18.3623684 141.641579,18.7721053 141.426053,19.1652632 C141.22,19.5442105 140.938158,19.8876316 140.722632,20.2831579 L140.097368,21.4436842 C139.893684,21.825 139.701842,22.2228947 139.491053,22.6184211 C139.287368,22.9997368 139.140526,23.4213158 138.929737,23.8168421 C138.728421,24.1981579 138.465526,24.5581579 138.257105,24.9536842 C138.055789,25.3373684 137.916053,25.7589474 137.712368,26.1568421 C137.511053,26.5405263 137.238684,26.8934211 137.032632,27.2913158 C136.833684,27.675 136.663158,28.0823684 136.461842,28.4802632 C136.262895,28.8663158 136.023684,29.2381579 135.822368,29.6384211 C135.623421,30.0268421 135.507368,30.4602632 135.306053,30.8605263 C135.109474,31.2489474 134.896316,31.6373684 134.713947,32.0447368 C134.275789,33.0110526 134.275789,33.4373684 134.657105,33.0086842 C134.953158,32.6794737 135.289474,32.3976316 135.585526,32.0826316 C135.886316,31.7605263 136.182368,31.4407895 136.485526,31.1328947 C136.793421,30.8178947 137.096579,30.5005263 137.406842,30.2021053 C137.724211,29.8942105 138.025,29.5815789 138.344737,29.2926316 C138.671579,28.9942105 138.97,28.6721053 139.296842,28.3926316 C139.635526,28.1084211 140.009737,27.8763158 140.346053,27.6110526 C140.694211,27.3339474 141.044737,27.0757895 141.390526,26.82 C141.745789,26.5594737 142.115263,26.3226316 142.470526,26.0810526 C142.837632,25.8347368 143.195263,25.5860526 143.56,25.3610526 C143.931036,25.1329595 144.307733,24.9142066 144.689737,24.705 C145.078158,24.4918421 145.428684,24.2218421 145.817105,24.0371053 C146.215,23.8476316 146.641316,23.7292105 147.036842,23.5681579 C147.446579,23.4023684 147.856316,23.2531579 148.263684,23.1181579 C148.680526,22.9760526 149.080789,22.7936842 149.495263,22.6871053 C149.923947,22.5781579 150.362105,22.5402632 150.783684,22.4644737 C151.219474,22.3886842 151.648158,22.3365789 152.076842,22.2986842 C152.512632,22.2584211 152.946053,22.275 153.377105,22.275 C153.876842,22.275 154.371842,22.2607895 154.862105,22.3484211 C155.987105,22.5544737 155.894737,22.8813158 155.560789,23.1394737 C155.217368,23.4071053 154.648947,23.8736842 154.317368,24.1342105 C153.973947,24.4042105 153.649474,24.6860526 153.317895,24.9489474 C152.976842,25.2165789 152.614474,25.4510526 152.282895,25.7139474 C151.944211,25.9839474 151.626842,26.2728947 151.297632,26.5381579 C150.958947,26.8081579 150.634474,27.0876316 150.307632,27.3528947 C149.971316,27.6252632 149.611316,27.8621053 149.286842,28.1297368 C148.948158,28.4044737 148.656842,28.7218421 148.332368,28.9918421 C147.996053,29.2665789 147.612368,29.475 147.290263,29.745 L146.300263,30.5668421 C145.971053,30.8463158 145.653684,31.1352632 145.333947,31.4076316 L144.362895,32.2460526 C144.033684,32.5302632 143.716316,32.8144737 143.398947,33.0939474 C143.074474,33.3805263 142.735789,33.6457895 142.423158,33.9276316 C142.098684,34.2165789 141.821579,34.5434211 141.508947,34.8276316 C141.189211,35.1189474 140.897895,35.4339474 140.59,35.7205263 C140.270263,36.0165789 139.933947,36.2794737 139.628421,36.5684211 C139.313421,36.8668421 138.723684,37.4092105 138.427632,37.7052632 C137.842632,38.295 137.811842,38.6005263 137.949211,39.4128947 C138.020263,39.8463158 138.136316,40.6042105 138.223947,41.0186842 C138.318684,41.445 138.385,41.8736842 138.484474,42.2857895 C138.588684,42.7121053 138.695263,43.1313158 138.806579,43.5410526 C138.920263,43.9626316 139.076579,44.3676316 139.199737,44.7726316 C139.327632,45.1918421 139.412895,45.6181579 139.550263,46.0160526 C139.692368,46.4328947 139.879474,46.8213158 140.031053,47.2168421 C140.185,47.6289474 140.308158,48.0434211 140.473947,48.4318421 C140.646842,48.8344737 140.893158,49.1968421 141.073158,49.5781579 C141.262632,49.9736842 141.418947,50.3763158 141.617895,50.7481579 C141.821579,51.1389474 142.082105,51.4847368 142.295263,51.8494737 C142.517895,52.2284211 142.709737,52.6144737 142.941842,52.9673684 C143.183421,53.3344737 143.398947,53.7110526 143.65,54.0497368 C143.910526,54.405 144.199474,54.7223684 144.467105,55.0492105 C144.746579,55.3878947 145.026053,55.7123684 145.312632,56.0226316 C145.611053,56.3423684 145.890526,56.6715789 146.196053,56.9628947 C146.515789,57.2636842 146.845,57.5407895 147.169474,57.8107895 C147.505789,58.0902632 147.839737,58.3626316 148.178421,58.6113158 C148.533684,58.8694737 148.874737,59.1347368 149.232368,59.3597368 C149.601842,59.5918421 149.997368,59.7718421 150.369211,59.9731579 C150.755263,60.1792105 151.122368,60.4065789 151.506053,60.5818421 C151.903947,60.7618421 152.320789,60.8802632 152.713947,61.0294737 C153.123684,61.1834211 153.519211,61.3563158 153.921842,61.4794737 C154.341053,61.6073684 154.767368,61.6878947 155.177105,61.7873684 C155.603421,61.8892105 156.032105,61.92 156.444211,61.9934211 C156.88,62.0692105 157.296842,62.1828947 157.711316,62.2302632 C158.149474,62.2776316 158.578158,62.28 158.990263,62.3036842 C159.435526,62.3273684 159.861842,62.3889474 160.271579,62.3889474 C160.697895,62.3889474 161.11,62.3581579 161.505526,62.3392105 C161.936579,62.3155263 162.346316,62.2444737 162.734737,62.2065789 C163.170526,62.1615789 163.587368,62.1615789 163.963947,62.1047368 C164.418684,62.0360526 164.821316,61.9318421 165.171842,61.8584211 C166.095526,61.6642105 166.360789,61.8252632 165.856316,62.7276316 C165.664474,63.0710526 165.349474,63.3576316 165.039211,63.6797368 C164.762105,63.9663158 164.492105,64.2907895 164.143947,64.5655263 C163.828947,64.8142105 163.497368,65.0818421 163.130263,65.3139474 C162.786842,65.5294737 162.379474,65.6621053 161.993421,65.8586842 C161.633421,66.0481579 161.271053,66.2636842 160.875526,66.4318421 C160.498947,66.5905263 160.112895,66.7610526 159.710263,66.8984211 C159.321842,67.0310526 158.914474,67.14 158.502368,67.2489474 C158.097542,67.3616258 157.68917,67.4611518 157.277895,67.5473684 C156.875263,67.6278947 156.448947,67.6184211 156.027368,67.6752632 C155.617632,67.7297368 155.203158,67.7865789 154.781579,67.8173684 C154.364737,67.8434211 153.947895,67.8434211 153.526316,67.8434211 M186.193947,58.1660526 C185.698947,58.2560526 185.248947,58.4360526 184.806053,58.5165789 C184.303947,58.6113158 183.832632,58.6728947 183.406316,58.7534211 C182.932632,58.8457895 182.475526,58.9073684 182.049211,59.0163158 C181.577895,59.1347368 181.135,59.2673684 180.722895,59.4047368 C180.256316,59.5586842 179.839474,59.7576316 179.443947,59.9305263 C178.989211,60.1271053 178.546316,60.2786842 178.181579,60.4942105 C177.781751,60.7284219 177.403666,60.9979161 177.051842,61.2994737 C176.696334,61.6003984 176.390244,61.9552397 176.144737,62.3510526 C175.87,62.8057895 175.732632,63.2747368 175.772895,63.6821053 C175.810789,64.0847368 176.064211,64.3973684 176.360263,64.6673684 C176.620789,64.8994737 176.938158,65.1197368 177.357368,65.2334211 C177.696053,65.3234211 178.089211,65.3044737 178.515526,65.3044737 C178.882632,65.3044737 179.275789,65.2973684 179.692632,65.2239474 C180.062105,65.1623684 180.452895,65.1007895 180.850789,64.9823684 C181.215526,64.8757895 181.585,64.7313158 181.968684,64.5797368 C182.387895,64.4092105 182.809474,64.2481579 183.200263,64.0278947 C183.593421,63.8123684 183.939211,63.5186842 184.306316,63.2510526 C184.661579,62.9881579 184.988421,62.6826316 185.32,62.3723684 C185.642105,62.0692105 185.987895,61.785 186.286316,61.4344737 C186.572895,61.1005263 186.812105,60.7192105 187.079737,60.3426316 C187.330789,59.9826316 187.648158,59.6510526 187.873158,59.2460526 C188.548158,58.0357895 188.496053,57.8226316 187.406579,57.9434211 C186.793158,58.0097368 186.800263,58.0547368 186.193947,58.1660526 M178.624474,69.6836842 C178.018158,69.6836842 177.402368,69.7476316 176.798421,69.6836842 C176.391386,69.6346327 175.987923,69.5594778 175.590526,69.4586842 C175.180789,69.3639474 174.804211,69.2028947 174.434737,69.0560526 C174.056788,68.9056986 173.692316,68.7234625 173.345263,68.5113158 C172.989988,68.308386 172.65595,68.0703539 172.348158,67.8007895 C172.045,67.5165789 171.827105,67.1660526 171.604474,66.8297368 C171.145987,66.1558246 170.861967,65.3786351 170.777895,64.5678947 C170.740747,64.1285607 170.75745,63.6863328 170.827632,63.2510526 C170.889211,62.8318421 170.912895,62.3842105 171.073947,61.9460526 C171.218421,61.5505263 171.455263,61.1692105 171.689737,60.7642105 C171.902895,60.4018421 172.094737,59.9944737 172.383684,59.6273684 C172.644211,59.3005263 172.945,58.9642105 173.271842,58.6373684 C173.572632,58.3365789 173.920789,58.0571053 174.278421,57.7634211 C174.605263,57.4934211 174.977105,57.2518421 175.358421,56.9889474 C175.708947,56.745 176.071316,56.4915789 176.469211,56.2547368 C176.836316,56.0392105 177.238947,55.8521053 177.646316,55.6436842 C178.025263,55.4447368 178.399474,55.1984211 178.818684,55.0089474 C179.209474,54.8313158 179.607368,54.63 180.031316,54.4618421 C180.433947,54.3007895 180.867368,54.1918421 181.296053,54.0402632 C181.703421,53.8934211 182.110789,53.7086842 182.546579,53.5713158 C182.939737,53.4481579 183.356579,53.3960526 183.754474,53.2705263 C184.147632,53.1521053 184.531316,52.9934211 184.933947,52.8702632 L186.122895,52.5078947 C186.516053,52.3894737 186.930526,52.335 187.335526,52.2165789 C187.726316,52.1005263 188.102895,51.9110526 188.507895,51.795 C188.901053,51.6813158 189.732368,51.4160526 190.142105,51.3142105 C190.852632,51.1365789 190.765,51.1128947 191.101316,50.3526316 C191.274211,49.9642105 191.503947,49.3815789 191.612895,48.9931579 C191.731316,48.5810526 191.885263,48.1902632 192.003684,47.8089474 C192.133947,47.3921053 192.240526,46.98 192.373158,46.6152632 C192.344737,46.4731579 192.257105,46.4471053 192.115,46.4873684 C191.790526,46.8071053 191.451842,47.0771053 191.122632,47.3613158 C190.776842,47.6597368 190.402632,47.9036842 190.056842,48.1618421 C189.702674,48.4294008 189.337627,48.682247 188.962632,48.9197368 C188.574211,49.1636842 188.211842,49.4218421 187.825789,49.6136842 C187.416053,49.8197368 186.987368,49.9452632 186.582368,50.0873684 C186.148947,50.2365789 185.743947,50.4284211 185.322368,50.5089474 C184.884652,50.587186 184.440699,50.6252391 183.996053,50.6226316 C183.503421,50.6226316 183.025,50.5515789 182.570263,50.4378947 C181.632029,50.2165729 180.766605,49.7573515 180.057368,49.1044737 C179.697017,48.7839396 179.373687,48.4240663 179.093421,48.0315789 C178.855,47.6666038 178.647438,47.282377 178.472895,46.8828947 C178.281132,46.4918378 178.11807,46.0873494 177.985,45.6726316 C177.861842,45.2652632 177.802632,44.8318421 177.724474,44.3936842 C177.646294,43.9658802 177.590953,43.5342163 177.558684,43.1005263 C177.532632,42.6742105 177.501842,42.2384211 177.511316,41.7931579 C177.525526,41.3668421 177.641579,40.9405263 177.688947,40.5 C177.736316,40.0760526 177.705526,39.6331579 177.783684,39.1973684 C177.859474,38.7757895 177.980263,38.3565789 178.086842,37.9278947 C178.188684,37.5110526 178.314211,37.0942105 178.442105,36.6702632 C178.572368,36.2605263 178.690789,35.8413158 178.844737,35.4244737 C178.998684,35.0171053 179.2,34.6192105 179.372895,34.2118421 C179.543421,33.8092105 179.690263,33.39 179.882105,32.9897368 C180.066842,32.5918421 180.242105,32.1844737 180.445789,31.7913158 C180.649474,31.4005263 180.914737,31.0428947 181.135,30.6592105 C181.352895,30.2755263 181.611053,29.9178947 181.845526,29.5436842 C182.077632,29.1647368 182.250526,28.755 182.496842,28.3902632 C182.743158,28.0207895 183.046316,27.6939474 183.304474,27.3386842 C183.567368,26.9810526 183.823158,26.6210526 184.095526,26.28 C184.375,25.9318421 184.609474,25.5505263 184.898421,25.2236842 C185.192105,24.8873684 185.5,24.5676316 185.803158,24.255 C186.113421,23.9352632 186.473421,23.6723684 186.793158,23.3786842 C187.124737,23.0731579 187.411316,22.7297368 187.747632,22.4597368 C188.100526,22.1778947 188.474737,21.9386842 188.83,21.6971053 C189.192911,21.4452869 189.568396,21.2120909 189.955,20.9984211 C190.352895,20.7828947 190.776842,20.6455263 191.174737,20.4939474 C191.598684,20.3281579 192.003684,20.1505263 192.422895,20.0628947 C192.863421,19.9728947 193.306316,19.9586842 193.737368,19.9586842 C193.929211,19.9586842 194.305789,20.0510526 194.028684,20.5792105 C193.853421,20.9107895 193.325263,21.8415789 193.102632,22.2702632 L192.512895,23.4189474 C192.328158,23.7836842 192.119737,24.1626316 191.920789,24.5652632 C191.733684,24.9394737 191.560789,25.3373684 191.364211,25.7352632 C191.179474,26.1142105 190.994737,26.505 190.805263,26.9028947 C190.620526,27.2842105 190.431053,27.6726316 190.246316,28.0681579 C190.063947,28.4565789 189.850789,28.8331579 189.670789,29.2286842 C189.493158,29.6218421 189.343947,30.0292105 189.168684,30.4247368 C188.995789,30.8202632 188.844211,31.2252632 188.676053,31.6207895 C188.507895,32.0234211 188.363421,32.4331579 188.202368,32.8286842 C188.041316,33.2360526 187.894474,33.6410526 187.742895,34.0389474 C187.586579,34.4510526 187.392368,34.8394737 187.252632,35.235 C187.098684,35.6802632 186.921053,36.0923684 186.802632,36.5021053 C186.674737,36.9592105 186.617895,37.4068421 186.537368,37.8165789 C186.445,38.2902632 186.407105,38.7355263 186.381053,39.1452632 C186.347895,39.6426316 186.305263,40.0878947 186.366842,40.4834211 C186.447368,40.9807895 186.591842,41.4165789 186.823947,41.7457895 C187.038318,42.0318786 187.32421,42.2565077 187.652895,42.3971053 C187.953684,42.5321053 188.304211,42.5747368 188.685526,42.5747368 C189.109474,42.5747368 189.576053,42.5155263 190.061579,42.3521053 C190.476053,42.2147368 190.878684,41.9707895 191.312105,41.7292105 C191.702895,41.5113158 192.100789,41.2697368 192.491579,40.9784211 C192.853947,40.7060526 193.237632,40.4336842 193.585789,40.1044737 C193.922105,39.7894737 194.279737,39.465 194.587632,39.105 C194.732105,38.6976316 194.807895,38.2618421 194.952368,37.8710526 C195.103947,37.4636842 195.243684,37.0610526 195.395263,36.6702632 C195.553947,36.2676316 195.757632,35.8886842 195.916316,35.5026316 C196.079737,35.1 196.257368,34.7163158 196.423158,34.3326316 C196.596053,33.9347368 196.726316,33.5273684 196.896842,33.1484211 C197.079211,32.7528947 197.275789,32.3763158 197.455789,32.0021053 C197.645263,31.6089474 197.846579,31.2347368 198.033684,30.8652632 C198.232632,30.4768421 198.445789,30.1073684 198.644737,29.745 C198.855526,29.3613158 199.018947,28.9634211 199.227368,28.6081579 C199.45,28.2292105 199.741316,27.9071053 199.961579,27.5589474 C200.196053,27.1847368 200.425789,26.8294737 200.657895,26.4907895 C200.906579,26.1260526 201.133947,25.7707895 201.380263,25.4439474 C201.643158,25.0886842 201.853947,24.7144737 202.114474,24.4018421 C202.393947,24.0584211 202.723158,23.7813158 203.000263,23.4828947 C203.301053,23.1560526 203.545,22.8031579 203.838684,22.5236842 C204.163158,22.2157895 204.535,21.9955263 204.847632,21.7421053 C205.195789,21.4578947 205.513158,21.1760526 205.844737,20.9534211 C206.218947,20.7 206.602632,20.5247368 206.953158,20.34 C207.358158,20.1268421 207.708684,19.8710526 208.073421,19.7360526 C208.473466,19.5875671 208.884439,19.4703727 209.302632,19.3855263 C209.783421,19.2907895 210.216842,19.2931579 210.567368,19.2671053 C211.585789,19.1913158 211.564474,19.5394737 211.372632,19.9397368 C211.180789,20.3423684 210.723684,21.4555263 210.536579,21.8581579 C210.347105,22.2655263 210.143421,22.6610526 209.958684,23.0636842 C209.769211,23.4710526 209.579737,23.8736842 209.399737,24.2763158 C209.215,24.6836842 208.978158,25.0673684 208.800526,25.47 C208.618158,25.8797368 208.445263,26.2894737 208.27,26.6944737 C208.09,27.1042105 207.926579,27.5186842 207.753684,27.9260526 C207.578421,28.3357895 207.426842,28.755 207.256316,29.1623684 C207.081053,29.5768421 206.948421,30.0078947 206.782632,30.4176316 C206.609737,30.8321053 206.387105,31.2228947 206.218947,31.6302632 C206.053158,32.0471053 205.877895,32.4592105 205.712105,32.8689474 C205.546316,33.2834211 205.366316,33.6907895 205.202895,34.1005263 C205.041842,34.5173684 204.895,34.9365789 204.733947,35.3463158 L204.260263,36.5921053 C204.099211,37.0113158 204.018684,37.4565789 203.86,37.8710526 C203.703684,38.2902632 203.485789,38.6810526 203.331842,39.0955263 C203.175526,39.5123684 203.016842,39.9268421 202.865263,40.3413158 C202.708947,40.7605263 202.614211,41.1986842 202.462632,41.6131579 C202.308684,42.0323684 202.105,42.4278947 201.953421,42.84 C201.801842,43.2592105 201.645526,43.6713158 201.493947,44.0834211 C201.361316,44.4505263 201.193158,44.7986842 201.062895,45.1586842 C200.927895,45.5257895 200.802368,45.8928947 200.672105,46.2528947 C200.537105,46.6176316 200.316842,47.3731579 200.198421,47.7378947 C199.985263,48.3915789 200.094211,48.6710526 200.998947,48.4318421 C201.425263,48.3181579 202.216316,48.0363158 202.637895,47.9202632 C203.064211,47.8018421 203.485789,47.6644737 203.905,47.5460526 C204.333684,47.4228947 204.769474,47.3423684 205.188684,47.2215789 C205.615,47.0960526 206.02,46.9136842 206.439211,46.7881579 C206.865526,46.6578947 207.310789,46.6128947 207.727632,46.4826316 C208.153947,46.3523684 208.575526,46.2221053 208.99,46.0871053 C209.416316,45.9521053 209.828421,45.7981579 210.240526,45.6607895 C210.664474,45.5163158 211.078947,45.3718421 211.488684,45.225 C211.910263,45.0734211 212.322368,44.9171053 212.727368,44.7631579 C213.144211,44.6044737 213.565789,44.4671053 213.966053,44.3060526 C214.380526,44.1402632 214.766579,43.9152632 215.164474,43.7423684 C215.574211,43.5623684 215.960263,43.3492105 216.353421,43.1644737 C216.756053,42.9726316 217.170526,42.8115789 217.554211,42.6126316 C217.952105,42.4042105 218.354737,42.2218421 218.728947,42.0063158 C219.117368,41.7813158 219.475,41.5207895 219.837368,41.2839474 C220.213947,41.0423684 220.557368,40.7676316 220.905526,40.5118421 C221.265526,40.2465789 221.663421,40.0381579 221.992632,39.7563158 C222.331316,39.465 222.622632,39.1286842 222.928158,38.8207895 C223.243158,38.5057895 223.543947,38.1860526 223.821053,37.8497368 C224.105263,37.5086842 224.391842,37.1723684 224.635789,36.8076316 C224.879737,36.4428947 225.109474,36.0639474 225.315526,35.6731579 C225.516842,35.2871053 225.829474,35.3297368 225.82,35.7584211 C225.808158,36.1989474 225.82,36.6347368 225.765526,37.0610526 C225.708684,37.4944737 225.590263,37.9113158 225.488421,38.3328947 C225.388947,38.7544737 225.339211,39.1926316 225.192368,39.6047368 C225.045526,40.0097368 224.844211,40.3981579 224.654737,40.7936842 C224.47,41.1797368 224.311316,41.5918421 224.086316,41.9684211 C223.863684,42.3355263 223.586579,42.6765789 223.323684,43.0342105 C223.070263,43.3752632 222.771842,43.6902632 222.482895,44.0265789 C222.203421,44.3486842 221.931053,44.6897368 221.618421,45.0023684 C221.32,45.3031579 220.997895,45.5968421 220.666316,45.8905263 C220.348947,46.1747368 219.993684,46.4257895 219.647895,46.7005263 C219.313947,46.9610526 218.975263,47.2334211 218.615263,47.4915789 C218.269474,47.7378947 217.904737,47.9723684 217.535263,48.2139474 C217.177632,48.4460526 216.796316,48.6473684 216.417368,48.8747368 C216.050263,49.0926316 215.697368,49.3460526 215.311316,49.5592105 C214.939474,49.7628947 214.539211,49.9286842 214.146053,50.13 C213.767105,50.3242105 213.4,50.5610526 213.002105,50.7505263 C212.616053,50.9328947 212.206316,51.0797368 211.806053,51.2573684 C211.412895,51.4302632 211.029211,51.6315789 210.621842,51.7997368 C210.228684,51.9655263 209.845,52.1763158 209.435263,52.3373684 C209.037368,52.4913158 208.611053,52.5978947 208.198947,52.7471053 C207.796316,52.8963158 207.398421,53.0739474 206.983947,53.2207895 C206.578947,53.3605263 206.150263,53.4505263 205.733421,53.5902632 C205.326053,53.7228947 204.918684,53.8744737 204.501842,54.0047368 C204.089737,54.1326316 203.687105,54.2984211 203.265526,54.4239474 C202.855789,54.5447368 202.424737,54.6134211 202.000789,54.7318421 C201.588684,54.8502632 201.176579,54.9947368 200.752632,55.1107895 C200.338158,55.2221053 199.918947,55.3405263 199.492632,55.4518421 C198.945499,55.5930034 198.400691,55.7430231 197.858421,55.9018421 C197.015263,56.1552632 196.768947,56.2334211 196.475263,57.0221053 C196.288158,57.5265789 195.778947,58.5165789 195.561053,58.9642105 C195.371579,59.3526316 195.182105,59.7528947 194.957105,60.1413158 C194.730234,60.5191538 194.490085,60.8888581 194.237105,61.2497368 C193.990789,61.605 193.739737,61.9697368 193.462632,62.3202632 C193.192632,62.6613158 192.849211,62.9478947 192.553158,63.2771053 C192.261842,63.6015789 191.970526,63.9284211 191.653158,64.2386842 C191.340526,64.5418421 191.075263,64.9065789 190.738947,65.1955263 C190.407368,65.4797368 190.014211,65.6928947 189.658947,65.9581579 C188.957524,66.4879591 188.221695,66.9705998 187.456316,67.4028947 C187.072632,67.6160526 186.67,67.7889474 186.267368,67.9760526 C185.86931,68.159359 185.464843,68.3284138 185.054737,68.4828947 C184.647368,68.6415789 184.256579,68.85 183.832632,68.9802632 C183.413421,69.1057895 182.991842,69.2407895 182.558421,69.3355263 C182.132105,69.4326316 181.696316,69.4965789 181.255789,69.5628947 C180.827105,69.6268421 180.381842,69.6055263 179.938947,69.6363158 C179.505526,69.6694737 179.069737,69.6836842 178.624474,69.6836842" id="Shape"></path>
                    </g>
                </g>
            </g>
        </g>
    </g>
</svg>